<svg width="26" height="26" viewBox="0 0 26 26" fill="none" xmlns="http://www.w3.org/2000/svg">
<g filter="url(#filter0_d)">
<path d="M18.1495 11.9999C18.1495 11.7969 18.3141 11.6323 18.5171 11.6323H21.1211C21.3242 11.6323 21.4888 11.7969 21.4888 11.9999C21.4888 12.203 21.3242 12.3675 21.1211 12.3675H18.5171C18.3141 12.3675 18.1495 12.203 18.1495 11.9999V11.9999Z" fill="url(#paint0_linear)"/>
<path d="M21.8564 13.1436C22.488 13.1436 23 12.6316 23 12C23 11.3684 22.488 10.8563 21.8564 10.8563C21.2247 10.8563 20.7127 11.3684 20.7127 12C20.7127 12.6316 21.2247 13.1436 21.8564 13.1436Z" fill="url(#paint1_linear)"/>
<path d="M16.6412 8.35879C16.4977 8.21522 16.4977 7.98247 16.6412 7.8389L18.4826 5.99757C18.6261 5.854 18.8589 5.854 19.0025 5.99757C19.146 6.14114 19.146 6.37388 19.0025 6.51745L17.1611 8.35879C17.0176 8.50231 16.7848 8.50231 16.6412 8.35879Z" fill="url(#paint2_linear)"/>
<path d="M19.2624 6.88129C19.894 6.88129 20.406 6.36926 20.406 5.73764C20.406 5.10602 19.894 4.59399 19.2624 4.59399C18.6307 4.59399 18.1187 5.10602 18.1187 5.73764C18.1187 6.36926 18.6307 6.88129 19.2624 6.88129Z" fill="url(#paint3_linear)"/>
<path d="M16.6413 15.6412C16.7848 15.4977 17.0176 15.4977 17.1612 15.6412L19.0025 17.4826C19.1461 17.6261 19.1461 17.8589 19.0025 18.0025C18.8589 18.146 18.6262 18.146 18.4826 18.0025L16.6413 16.1611C16.4977 16.0176 16.4977 15.7848 16.6413 15.6412Z" fill="url(#paint4_linear)"/>
<path d="M19.2624 19.4061C19.894 19.4061 20.4061 18.894 20.4061 18.2624C20.4061 17.6308 19.894 17.1188 19.2624 17.1188C18.6308 17.1188 18.1188 17.6308 18.1188 18.2624C18.1188 18.894 18.6308 19.4061 19.2624 19.4061Z" fill="url(#paint5_linear)"/>
<path d="M13.0001 6.85045C12.797 6.85045 12.6324 6.68586 12.6324 6.48284V3.87884C12.6324 3.67582 12.797 3.51123 13.0001 3.51123C13.2031 3.51123 13.3677 3.67582 13.3677 3.87884V6.48284C13.3677 6.68586 13.2031 6.85045 13.0001 6.85045V6.85045Z" fill="url(#paint6_linear)"/>
<path d="M13 4.28729C13.6317 4.28729 14.1437 3.77527 14.1437 3.14365C14.1437 2.51203 13.6317 2 13 2C12.3684 2 11.8564 2.51203 11.8564 3.14365C11.8564 3.77527 12.3684 4.28729 13 4.28729Z" fill="url(#paint7_linear)"/>
<path d="M13.0001 17.1495C13.2031 17.1495 13.3677 17.3141 13.3677 17.5171V20.1211C13.3677 20.3242 13.2031 20.4888 13.0001 20.4888C12.797 20.4888 12.6324 20.3242 12.6324 20.1211V17.5171C12.6324 17.3141 12.797 17.1495 13.0001 17.1495V17.1495Z" fill="url(#paint8_linear)"/>
<path d="M13 22.0001C13.6317 22.0001 14.1437 21.488 14.1437 20.8564C14.1437 20.2248 13.6317 19.7128 13 19.7128C12.3684 19.7128 11.8564 20.2248 11.8564 20.8564C11.8564 21.488 12.3684 22.0001 13 22.0001Z" fill="url(#paint9_linear)"/>
<path d="M7.85045 11.9999C7.85045 12.203 7.68586 12.3675 7.48284 12.3675H4.87884C4.67582 12.3675 4.51123 12.203 4.51123 11.9999C4.51123 11.7969 4.67582 11.6323 4.87884 11.6323H7.48284C7.68586 11.6323 7.85045 11.7969 7.85045 11.9999V11.9999Z" fill="url(#paint10_linear)"/>
<path d="M4.14365 13.1436C4.77527 13.1436 5.28729 12.6316 5.28729 12C5.28729 11.3684 4.77527 10.8563 4.14365 10.8563C3.51203 10.8563 3 11.3684 3 12C3 12.6316 3.51203 13.1436 4.14365 13.1436Z" fill="url(#paint11_linear)"/>
<path d="M9.35872 15.6412C9.50229 15.7848 9.50229 16.0175 9.35872 16.1611L7.51739 18.0024C7.37382 18.146 7.14108 18.146 6.99751 18.0024C6.85394 17.8589 6.85394 17.6261 6.99751 17.4825L8.83884 15.6412C8.98241 15.4977 9.21516 15.4977 9.35872 15.6412Z" fill="url(#paint12_linear)"/>
<path d="M6.73758 19.4059C7.3692 19.4059 7.88123 18.8939 7.88123 18.2623C7.88123 17.6307 7.3692 17.1187 6.73758 17.1187C6.10596 17.1187 5.59393 17.6307 5.59393 18.2623C5.59393 18.8939 6.10596 19.4059 6.73758 19.4059Z" fill="url(#paint13_linear)"/>
<path d="M9.35872 8.35878C9.21515 8.50235 8.98241 8.50235 8.83884 8.35878L6.99751 6.51745C6.85394 6.37388 6.85394 6.14114 6.99751 5.99757C7.14108 5.854 7.37382 5.854 7.51739 5.99757L9.35872 7.8389C9.50225 7.98247 9.50225 8.21522 9.35872 8.35878Z" fill="url(#paint14_linear)"/>
<path d="M6.73758 6.88129C7.3692 6.88129 7.88123 6.36926 7.88123 5.73764C7.88123 5.10602 7.3692 4.59399 6.73758 4.59399C6.10596 4.59399 5.59393 5.10602 5.59393 5.73764C5.59393 6.36926 6.10596 6.88129 6.73758 6.88129Z" fill="url(#paint15_linear)"/>
<path d="M13 19.0422C16.8893 19.0422 20.0421 15.8893 20.0421 12C20.0421 8.11077 16.8893 4.95789 13 4.95789C9.11071 4.95789 5.95782 8.11077 5.95782 12C5.95782 15.8893 9.11071 19.0422 13 19.0422Z" fill="url(#paint16_linear)"/>
<path d="M15.8093 5.54102L14.7455 8.17937C14.7455 8.17937 15.8728 8.46807 16.9348 10.2544L19.4792 9.23698C18.7738 7.58502 17.4551 6.25788 15.8093 5.54102V5.54102Z" fill="url(#paint17_linear)"/>
<path d="M13 19.0422C16.8892 19.0422 20.0422 15.8893 20.0422 12C20.0422 11.0905 19.8697 10.2213 19.5557 9.42322L6.58478 14.9085C7.69188 17.3466 10.1479 19.0422 13 19.0422V19.0422Z" fill="url(#paint18_linear)"/>
<path d="M14.5484 8.17099C14.3975 8.10993 14.3246 7.93809 14.3857 7.78711L15.1686 5.85088C15.2297 5.69993 15.4015 5.62703 15.5525 5.68809C15.7035 5.74915 15.7764 5.92099 15.7153 6.07197L14.9323 8.00825C14.8713 8.15915 14.6994 8.23205 14.5484 8.17099V8.17099Z" fill="url(#paint19_linear)"/>
<path d="M15.663 6.33202C16.1696 6.33202 16.5803 5.92134 16.5803 5.41473C16.5803 4.90812 16.1696 4.49744 15.663 4.49744C15.1564 4.49744 14.7457 4.90812 14.7457 5.41473C14.7457 5.92134 15.1564 6.33202 15.663 6.33202Z" fill="url(#paint20_linear)"/>
<path d="M16.829 13.5484C16.8901 13.3974 17.0619 13.3245 17.2129 13.3856L19.1492 14.1686C19.3001 14.2297 19.373 14.4015 19.312 14.5525C19.2509 14.7034 19.0791 14.7763 18.9281 14.7153L16.9918 13.9323C16.8409 13.8712 16.768 13.6993 16.829 13.5484Z" fill="url(#paint21_linear)"/>
<path d="M19.5853 15.5802C20.0919 15.5802 20.5026 15.1695 20.5026 14.6629C20.5026 14.1563 20.0919 13.7456 19.5853 13.7456C19.0787 13.7456 18.668 14.1563 18.668 14.6629C18.668 15.1695 19.0787 15.5802 19.5853 15.5802Z" fill="url(#paint22_linear)"/>
<path d="M16.8024 10.3874C16.7388 10.2375 16.8088 10.0644 16.9587 10.0008L18.8815 9.18534C19.0315 9.12177 19.2045 9.19173 19.2681 9.34166C19.3317 9.49158 19.2617 9.66464 19.1118 9.72821L17.189 10.5437C17.039 10.6073 16.866 10.5373 16.8024 10.3874Z" fill="url(#paint23_linear)"/>
<path d="M19.5395 10.1438C20.0462 10.1438 20.4568 9.73311 20.4568 9.2265C20.4568 8.71989 20.0462 8.3092 19.5395 8.3092C19.0329 8.3092 18.6223 8.71989 18.6223 9.2265C18.6223 9.73311 19.0329 10.1438 19.5395 10.1438Z" fill="url(#paint24_linear)"/>
<path d="M14.6126 15.8024C14.7625 15.7388 14.9356 15.8088 14.9992 15.9587L15.8146 17.8815C15.8782 18.0315 15.8083 18.2045 15.6583 18.2681C15.5084 18.3317 15.3354 18.2617 15.2718 18.1118L14.4563 16.189C14.3927 16.039 14.4627 15.866 14.6126 15.8024Z" fill="url(#paint25_linear)"/>
<path d="M15.7734 19.4569C16.28 19.4569 16.6907 19.0462 16.6907 18.5396C16.6907 18.033 16.28 17.6223 15.7734 17.6223C15.2668 17.6223 14.8561 18.033 14.8561 18.5396C14.8561 19.0462 15.2668 19.4569 15.7734 19.4569Z" fill="url(#paint26_linear)"/>
<path d="M11.4516 15.829C11.6025 15.89 11.6754 16.0619 11.6144 16.2128L10.8314 18.1491C10.7703 18.3 10.5985 18.3729 10.4475 18.3119C10.2966 18.2508 10.2237 18.079 10.2847 17.928L11.0677 15.9917C11.1287 15.8408 11.3006 15.7679 11.4516 15.829V15.829Z" fill="url(#paint27_linear)"/>
<path d="M10.337 19.5026C10.8436 19.5026 11.2543 19.0919 11.2543 18.5853C11.2543 18.0787 10.8436 17.668 10.337 17.668C9.83036 17.668 9.41968 18.0787 9.41968 18.5853C9.41968 19.0919 9.83036 19.5026 10.337 19.5026Z" fill="url(#paint28_linear)"/>
<path d="M6.18085 10.2237L8.77328 12.8161C8.77328 12.8161 8.52783 11.0679 9.17096 10.4515L6.47916 9.33691L6.18085 10.2237Z" fill="url(#paint29_linear)"/>
<path d="M9.17099 10.4515C9.10993 10.6025 8.93809 10.6754 8.78711 10.6143L6.85088 9.83132C6.69993 9.77026 6.62703 9.59841 6.68809 9.44743C6.74915 9.29649 6.92099 9.22359 7.07197 9.28465L9.00825 10.0677C9.15915 10.1287 9.23205 10.3006 9.17099 10.4515V10.4515Z" fill="url(#paint30_linear)"/>
<path d="M6.41473 10.2543C6.92134 10.2543 7.33202 9.84358 7.33202 9.33697C7.33202 8.83036 6.92134 8.41968 6.41473 8.41968C5.90812 8.41968 5.49744 8.83036 5.49744 9.33697C5.49744 9.84358 5.90812 10.2543 6.41473 10.2543Z" fill="url(#paint31_linear)"/>
<path d="M9.1976 13.6127C9.26117 13.7626 9.19121 13.9357 9.04129 13.9992L7.11846 14.8147C6.96854 14.8783 6.79548 14.8083 6.73191 14.6584C6.66834 14.5085 6.7383 14.3354 6.88823 14.2718L8.81105 13.4564C8.96097 13.3927 9.13403 13.4627 9.1976 13.6127V13.6127Z" fill="url(#paint32_linear)"/>
<path d="M6.46045 15.6908C6.96705 15.6908 7.37774 15.2801 7.37774 14.7735C7.37774 14.2669 6.96705 13.8562 6.46045 13.8562C5.95384 13.8562 5.54315 14.2669 5.54315 14.7735C5.54315 15.2801 5.95384 15.6908 6.46045 15.6908Z" fill="url(#paint33_linear)"/>
<path d="M10.2646 5.50896L11.3866 8.05853C12.3261 7.5888 13.5839 7.68845 13.5839 7.68845L11.1102 5.21472C10.8204 5.29531 10.5381 5.39358 10.2646 5.50896V5.50896Z" fill="url(#paint34_linear)"/>
<path d="M11.3874 8.19754C11.2375 8.26111 11.0644 8.19115 11.0008 8.04122L10.1853 6.1184C10.1218 5.96848 10.1917 5.79542 10.3417 5.73185C10.4916 5.66828 10.6646 5.73824 10.7282 5.88816L11.5437 7.81099C11.6073 7.96091 11.5373 8.13397 11.3874 8.19754V8.19754Z" fill="url(#paint35_linear)"/>
<path d="M10.2266 6.37768C10.7332 6.37768 11.1439 5.96699 11.1439 5.46038C11.1439 4.95378 10.7332 4.54309 10.2266 4.54309C9.71995 4.54309 9.30927 4.95378 9.30927 5.46038C9.30927 5.96699 9.71995 6.37768 10.2266 6.37768Z" fill="url(#paint36_linear)"/>
<path d="M13 16.4858C15.4774 16.4858 17.4858 14.4775 17.4858 12C17.4858 9.52263 15.4774 7.51428 13 7.51428C10.5226 7.51428 8.51422 9.52263 8.51422 12C8.51422 14.4775 10.5226 16.4858 13 16.4858Z" fill="url(#paint37_linear)"/>
</g>
<defs>
<filter id="filter0_d" x="0" y="0" width="26" height="26" filterUnits="userSpaceOnUse" color-interpolation-filters="sRGB">
<feFlood flood-opacity="0" result="BackgroundImageFix"/>
<feColorMatrix in="SourceAlpha" type="matrix" values="0 0 0 0 0 0 0 0 0 0 0 0 0 0 0 0 0 0 127 0"/>
<feOffset dy="1"/>
<feGaussianBlur stdDeviation="1.5"/>
<feColorMatrix type="matrix" values="0 0 0 0 1 0 0 0 0 0.882353 0 0 0 0 0.466667 0 0 0 1 0"/>
<feBlend mode="normal" in2="BackgroundImageFix" result="effect1_dropShadow"/>
<feBlend mode="normal" in="SourceGraphic" in2="effect1_dropShadow" result="shape"/>
</filter>
<linearGradient id="paint0_linear" x1="19.8191" y1="11.5098" x2="19.8191" y2="12.8194" gradientUnits="userSpaceOnUse">
<stop stop-color="#FF637B"/>
<stop offset="1" stop-color="#E63950"/>
</linearGradient>
<linearGradient id="paint1_linear" x1="22.1792" y1="11.6771" x2="21.2776" y2="12.5788" gradientUnits="userSpaceOnUse">
<stop stop-color="#FF9690"/>
<stop offset="1" stop-color="#F9545B"/>
</linearGradient>
<linearGradient id="paint2_linear" x1="17.4746" y1="6.83024" x2="18.4005" y2="7.7561" gradientUnits="userSpaceOnUse">
<stop stop-color="#FF637B"/>
<stop offset="1" stop-color="#E63950"/>
</linearGradient>
<linearGradient id="paint3_linear" x1="19.2614" y1="5.27996" x2="19.2614" y2="6.55484" gradientUnits="userSpaceOnUse">
<stop stop-color="#FF9690"/>
<stop offset="1" stop-color="#F9545B"/>
</linearGradient>
<linearGradient id="paint4_linear" x1="18.1698" y1="16.4746" x2="17.244" y2="17.4005" gradientUnits="userSpaceOnUse">
<stop stop-color="#FF637B"/>
<stop offset="1" stop-color="#E63950"/>
</linearGradient>
<linearGradient id="paint5_linear" x1="19.7201" y1="18.2615" x2="18.4452" y2="18.2615" gradientUnits="userSpaceOnUse">
<stop stop-color="#FF9690"/>
<stop offset="1" stop-color="#F9545B"/>
</linearGradient>
<linearGradient id="paint6_linear" x1="12.5099" y1="5.18084" x2="13.8195" y2="5.18084" gradientUnits="userSpaceOnUse">
<stop stop-color="#FF637B"/>
<stop offset="1" stop-color="#E63950"/>
</linearGradient>
<linearGradient id="paint7_linear" x1="12.6772" y1="2.82082" x2="13.5788" y2="3.72243" gradientUnits="userSpaceOnUse">
<stop stop-color="#FF9690"/>
<stop offset="1" stop-color="#F9545B"/>
</linearGradient>
<linearGradient id="paint8_linear" x1="13.4902" y1="18.8191" x2="12.1806" y2="18.8191" gradientUnits="userSpaceOnUse">
<stop stop-color="#FF637B"/>
<stop offset="1" stop-color="#E63950"/>
</linearGradient>
<linearGradient id="paint9_linear" x1="13.3229" y1="21.1792" x2="12.4212" y2="20.2776" gradientUnits="userSpaceOnUse">
<stop stop-color="#FF9690"/>
<stop offset="1" stop-color="#F9545B"/>
</linearGradient>
<linearGradient id="paint10_linear" x1="6.18084" y1="12.49" x2="6.18084" y2="11.1805" gradientUnits="userSpaceOnUse">
<stop stop-color="#FF637B"/>
<stop offset="1" stop-color="#E63950"/>
</linearGradient>
<linearGradient id="paint11_linear" x1="3.82086" y1="12.3228" x2="4.72243" y2="11.4212" gradientUnits="userSpaceOnUse">
<stop stop-color="#FF9690"/>
<stop offset="1" stop-color="#F9545B"/>
</linearGradient>
<linearGradient id="paint12_linear" x1="8.5245" y1="17.1706" x2="7.59863" y2="16.2447" gradientUnits="userSpaceOnUse">
<stop stop-color="#FF637B"/>
<stop offset="1" stop-color="#E63950"/>
</linearGradient>
<linearGradient id="paint13_linear" x1="6.73769" y1="18.7208" x2="6.73767" y2="17.4459" gradientUnits="userSpaceOnUse">
<stop stop-color="#FF9690"/>
<stop offset="1" stop-color="#F9545B"/>
</linearGradient>
<linearGradient id="paint14_linear" x1="7.82935" y1="7.52456" x2="8.75522" y2="6.59869" gradientUnits="userSpaceOnUse">
<stop stop-color="#FF637B"/>
<stop offset="1" stop-color="#E63950"/>
</linearGradient>
<linearGradient id="paint15_linear" x1="6.2791" y1="5.73776" x2="7.55395" y2="5.73773" gradientUnits="userSpaceOnUse">
<stop stop-color="#FF9690"/>
<stop offset="1" stop-color="#F9545B"/>
</linearGradient>
<linearGradient id="paint16_linear" x1="8.26198" y1="7.26204" x2="18.1974" y2="17.1975" gradientUnits="userSpaceOnUse">
<stop stop-color="#FF9690"/>
<stop offset="1" stop-color="#F9545B"/>
</linearGradient>
<linearGradient id="paint17_linear" x1="17.3781" y1="8.61572" x2="13.7192" y2="4.95678" gradientUnits="userSpaceOnUse">
<stop stop-color="#E63950" stop-opacity="0"/>
<stop offset="0.0467" stop-color="#E4354B" stop-opacity="0.047"/>
<stop offset="0.4669" stop-color="#D31822" stop-opacity="0.467"/>
<stop offset="0.7991" stop-color="#C90709" stop-opacity="0.799"/>
<stop offset="1" stop-color="#C50000"/>
</linearGradient>
<linearGradient id="paint18_linear" x1="13.9231" y1="13.8582" x2="12.2076" y2="10.468" gradientUnits="userSpaceOnUse">
<stop stop-color="#E63950" stop-opacity="0"/>
<stop offset="0.0467" stop-color="#E4354B" stop-opacity="0.047"/>
<stop offset="0.4669" stop-color="#D31822" stop-opacity="0.467"/>
<stop offset="0.7991" stop-color="#C90709" stop-opacity="0.799"/>
<stop offset="1" stop-color="#C50000"/>
</linearGradient>
<linearGradient id="paint19_linear" x1="14.6849" y1="6.78283" x2="15.6586" y2="7.17673" gradientUnits="userSpaceOnUse">
<stop stop-color="#FF637B"/>
<stop offset="1" stop-color="#E63950"/>
</linearGradient>
<linearGradient id="paint20_linear" x1="15.5192" y1="5.07846" x2="15.9183" y2="6.01997" gradientUnits="userSpaceOnUse">
<stop stop-color="#FF9690"/>
<stop offset="1" stop-color="#F9545B"/>
</linearGradient>
<linearGradient id="paint21_linear" x1="18.2172" y1="13.6848" x2="17.8233" y2="14.6586" gradientUnits="userSpaceOnUse">
<stop stop-color="#FF637B"/>
<stop offset="1" stop-color="#E63950"/>
</linearGradient>
<linearGradient id="paint22_linear" x1="19.9216" y1="14.519" x2="18.9801" y2="14.9182" gradientUnits="userSpaceOnUse">
<stop stop-color="#FF9690"/>
<stop offset="1" stop-color="#F9545B"/>
</linearGradient>
<linearGradient id="paint23_linear" x1="17.8758" y1="9.50417" x2="18.2854" y2="10.4716" gradientUnits="userSpaceOnUse">
<stop stop-color="#FF637B"/>
<stop offset="1" stop-color="#E63950"/>
</linearGradient>
<linearGradient id="paint24_linear" x1="19.6715" y1="8.88951" x2="19.2875" y2="9.8375" gradientUnits="userSpaceOnUse">
<stop stop-color="#FF9690"/>
<stop offset="1" stop-color="#F9545B"/>
</linearGradient>
<linearGradient id="paint25_linear" x1="15.4958" y1="16.8758" x2="14.5284" y2="17.2854" gradientUnits="userSpaceOnUse">
<stop stop-color="#FF637B"/>
<stop offset="1" stop-color="#E63950"/>
</linearGradient>
<linearGradient id="paint26_linear" x1="16.1104" y1="18.6716" x2="15.1624" y2="18.2876" gradientUnits="userSpaceOnUse">
<stop stop-color="#FF9690"/>
<stop offset="1" stop-color="#F9545B"/>
</linearGradient>
<linearGradient id="paint27_linear" x1="11.3159" y1="17.2177" x2="10.3422" y2="16.8238" gradientUnits="userSpaceOnUse">
<stop stop-color="#FF637B"/>
<stop offset="1" stop-color="#E63950"/>
</linearGradient>
<linearGradient id="paint28_linear" x1="10.4816" y1="18.9221" x2="10.0825" y2="17.9806" gradientUnits="userSpaceOnUse">
<stop stop-color="#FF9690"/>
<stop offset="1" stop-color="#F9545B"/>
</linearGradient>
<linearGradient id="paint29_linear" x1="7.83744" y1="11.474" x2="7.26559" y2="7.45076" gradientUnits="userSpaceOnUse">
<stop stop-color="#E63950" stop-opacity="0"/>
<stop offset="0.0467" stop-color="#E4354B" stop-opacity="0.047"/>
<stop offset="0.4669" stop-color="#D31822" stop-opacity="0.467"/>
<stop offset="0.7991" stop-color="#C90709" stop-opacity="0.799"/>
<stop offset="1" stop-color="#C50000"/>
</linearGradient>
<linearGradient id="paint30_linear" x1="7.7823" y1="10.3158" x2="8.1762" y2="9.34213" gradientUnits="userSpaceOnUse">
<stop stop-color="#FF637B"/>
<stop offset="1" stop-color="#E63950"/>
</linearGradient>
<linearGradient id="paint31_linear" x1="6.07793" y1="9.48162" x2="7.01944" y2="9.08249" gradientUnits="userSpaceOnUse">
<stop stop-color="#FF9690"/>
<stop offset="1" stop-color="#F9545B"/>
</linearGradient>
<linearGradient id="paint32_linear" x1="8.12719" y1="14.4994" x2="7.71753" y2="13.532" gradientUnits="userSpaceOnUse">
<stop stop-color="#FF637B"/>
<stop offset="1" stop-color="#E63950"/>
</linearGradient>
<linearGradient id="paint33_linear" x1="6.33146" y1="15.114" x2="6.71546" y2="14.166" gradientUnits="userSpaceOnUse">
<stop stop-color="#FF9690"/>
<stop offset="1" stop-color="#F9545B"/>
</linearGradient>
<linearGradient id="paint34_linear" x1="12.5219" y1="7.63076" x2="8.51912" y2="4.50617" gradientUnits="userSpaceOnUse">
<stop stop-color="#E63950" stop-opacity="0"/>
<stop offset="0.0467" stop-color="#E4354B" stop-opacity="0.047"/>
<stop offset="0.4669" stop-color="#D31822" stop-opacity="0.467"/>
<stop offset="0.7991" stop-color="#C90709" stop-opacity="0.799"/>
<stop offset="1" stop-color="#C50000"/>
</linearGradient>
<linearGradient id="paint35_linear" x1="10.5006" y1="7.12713" x2="11.468" y2="6.71747" gradientUnits="userSpaceOnUse">
<stop stop-color="#FF637B"/>
<stop offset="1" stop-color="#E63950"/>
</linearGradient>
<linearGradient id="paint36_linear" x1="9.88603" y1="5.33139" x2="10.834" y2="5.7154" gradientUnits="userSpaceOnUse">
<stop stop-color="#FF9690"/>
<stop offset="1" stop-color="#F9545B"/>
</linearGradient>
<linearGradient id="paint37_linear" x1="11.7338" y1="10.7339" x2="15.2701" y2="14.2702" gradientUnits="userSpaceOnUse">
<stop stop-color="#FF637B"/>
<stop offset="1" stop-color="#E63950"/>
</linearGradient>
</defs>
</svg>
