<svg width="234" height="57" viewBox="0 0 234 57" fill="none" xmlns="http://www.w3.org/2000/svg">
<g filter="url(#filter0_d)">
<path d="M22.856 45.48C18.024 45.48 14.184 44.424 11.336 42.312C8.488 40.168 6.968 36.888 6.776 32.472C6.744 31.608 6.728 30.2 6.728 28.248C6.728 26.264 6.744 24.824 6.776 23.928C6.968 19.64 8.52 16.408 11.432 14.232C14.344 12.024 18.152 10.92 22.856 10.92C25.736 10.92 28.376 11.352 30.776 12.216C33.208 13.08 35.176 14.44 36.68 16.296C38.216 18.12 39 20.424 39.032 23.208C39.032 23.496 38.92 23.752 38.696 23.976C38.504 24.168 38.264 24.264 37.976 24.264H28.184C27.672 24.264 27.288 24.168 27.032 23.976C26.808 23.784 26.6 23.416 26.408 22.872C26.056 21.912 25.592 21.24 25.016 20.856C24.44 20.472 23.704 20.28 22.808 20.28C21.688 20.28 20.824 20.584 20.216 21.192C19.608 21.768 19.288 22.76 19.256 24.168C19.224 25.032 19.208 26.36 19.208 28.152C19.208 29.944 19.224 31.304 19.256 32.232C19.288 33.64 19.608 34.648 20.216 35.256C20.824 35.832 21.688 36.12 22.808 36.12C24.632 36.12 25.832 35.256 26.408 33.528C26.568 32.984 26.76 32.616 26.984 32.424C27.24 32.232 27.64 32.136 28.184 32.136H37.976C38.264 32.136 38.504 32.248 38.696 32.472C38.92 32.664 39.032 32.904 39.032 33.192C39 35.976 38.216 38.296 36.68 40.152C35.176 41.976 33.208 43.32 30.776 44.184C28.376 45.048 25.736 45.48 22.856 45.48ZM55.6111 45.48C46.8111 45.48 42.1711 41.912 41.6911 34.776C41.6591 34.296 41.6431 33.544 41.6431 32.52C41.6431 31.496 41.6591 30.744 41.6911 30.264C41.9151 26.776 43.2431 24.12 45.6751 22.296C48.1071 20.472 51.4191 19.56 55.6111 19.56C59.8031 19.56 63.1151 20.472 65.5471 22.296C67.9791 24.12 69.3071 26.776 69.5311 30.264C69.5951 31.224 69.6271 31.976 69.6271 32.52C69.6271 33.064 69.5951 33.816 69.5311 34.776C69.0511 41.912 64.4111 45.48 55.6111 45.48ZM55.6111 37.8C56.4751 37.8 57.0351 37.576 57.2911 37.128C57.5471 36.648 57.7071 35.784 57.7711 34.536C57.8031 34.216 57.8191 33.544 57.8191 32.52C57.8191 31.496 57.8031 30.824 57.7711 30.504C57.6751 29.288 57.4991 28.44 57.2431 27.96C56.9871 27.48 56.4431 27.24 55.6111 27.24C54.7791 27.24 54.2351 27.48 53.9791 27.96C53.7231 28.44 53.5471 29.288 53.4511 30.504L53.4031 32.52L53.4511 34.536C53.5151 35.784 53.6751 36.648 53.9311 37.128C54.1871 37.576 54.7471 37.8 55.6111 37.8ZM81.2488 45C80.8328 45 80.5128 44.904 80.2888 44.712C80.0648 44.488 79.8568 44.184 79.6648 43.8L70.4488 21.528C70.4168 21.432 70.4008 21.32 70.4008 21.192C70.4008 20.872 70.5128 20.6 70.7368 20.376C70.9608 20.152 71.2328 20.04 71.5527 20.04H79.6648C80.4328 20.04 80.9608 20.424 81.2488 21.192L85.0888 32.376L88.9288 21.192C89.2168 20.424 89.7448 20.04 90.5128 20.04H98.6248C98.9448 20.04 99.2168 20.152 99.4408 20.376C99.6648 20.6 99.7768 20.872 99.7768 21.192C99.7768 21.32 99.7608 21.432 99.7288 21.528L90.5128 43.8C90.3208 44.184 90.1128 44.488 89.8888 44.712C89.6648 44.904 89.3448 45 88.9288 45H81.2488ZM103.899 17.4C103.547 17.4 103.243 17.272 102.987 17.016C102.731 16.76 102.603 16.456 102.603 16.104V10.296C102.603 9.944 102.731 9.64 102.987 9.384C103.243 9.128 103.547 9 103.899 9H112.011C112.363 9 112.667 9.128 112.923 9.384C113.179 9.64 113.307 9.944 113.307 10.296V16.104C113.307 16.456 113.179 16.76 112.923 17.016C112.667 17.272 112.363 17.4 112.011 17.4H103.899ZM103.659 45C103.307 45 103.003 44.872 102.747 44.616C102.491 44.36 102.363 44.056 102.363 43.704V21.336C102.363 20.984 102.491 20.68 102.747 20.424C103.003 20.168 103.307 20.04 103.659 20.04H112.251C112.603 20.04 112.907 20.168 113.163 20.424C113.419 20.68 113.547 20.984 113.547 21.336V43.704C113.547 44.056 113.419 44.36 113.163 44.616C112.907 44.872 112.603 45 112.251 45H103.659ZM127.431 45.48C124.455 45.48 122.055 44.584 120.231 42.792C118.407 41 117.415 38.2 117.255 34.392L117.207 32.472L117.255 30.6C117.383 26.984 118.375 24.248 120.231 22.392C122.119 20.504 124.519 19.56 127.431 19.56C130.023 19.56 132.151 20.312 133.815 21.816V12.216C133.815 11.864 133.943 11.56 134.199 11.304C134.455 11.048 134.759 10.92 135.111 10.92H143.991C144.343 10.92 144.647 11.048 144.903 11.304C145.159 11.56 145.287 11.864 145.287 12.216V43.704C145.287 44.056 145.159 44.36 144.903 44.616C144.647 44.872 144.343 45 143.991 45H135.831C135.479 45 135.175 44.872 134.919 44.616C134.663 44.36 134.535 44.056 134.535 43.704V42.6C132.839 44.52 130.471 45.48 127.431 45.48ZM131.415 36.888C132.247 36.888 132.839 36.664 133.191 36.216C133.543 35.736 133.751 35.032 133.815 34.104C133.879 33.144 133.911 32.552 133.911 32.328C133.911 32.104 133.879 31.512 133.815 30.552C133.751 29.752 133.527 29.16 133.143 28.776C132.791 28.36 132.215 28.152 131.415 28.152C130.583 28.152 129.991 28.376 129.639 28.824C129.319 29.272 129.111 29.976 129.015 30.936C128.983 31.256 128.967 31.784 128.967 32.52C128.967 33.256 128.983 33.784 129.015 34.104C129.111 35.064 129.319 35.768 129.639 36.216C129.991 36.664 130.583 36.888 131.415 36.888ZM150.957 35.304C150.605 35.304 150.301 35.176 150.045 34.92C149.789 34.664 149.661 34.36 149.661 34.008V27.192C149.661 26.84 149.789 26.536 150.045 26.28C150.301 26.024 150.605 25.896 150.957 25.896H166.557C166.909 25.896 167.213 26.024 167.469 26.28C167.725 26.536 167.853 26.84 167.853 27.192V34.008C167.853 34.36 167.725 34.664 167.469 34.92C167.213 35.176 166.909 35.304 166.557 35.304H150.957ZM182.547 45C182.195 45 181.891 44.872 181.635 44.616C181.379 44.36 181.251 44.056 181.251 43.704V24.312L175.875 28.44C175.683 28.6 175.443 28.68 175.155 28.68C174.739 28.68 174.371 28.472 174.051 28.056L169.827 22.584C169.699 22.264 169.635 22.024 169.635 21.864C169.635 21.64 169.683 21.432 169.779 21.24C169.907 21.016 170.067 20.84 170.259 20.712L181.827 11.736C182.147 11.512 182.499 11.4 182.883 11.4H191.955C192.307 11.4 192.611 11.528 192.867 11.784C193.123 12.04 193.251 12.344 193.251 12.696V43.704C193.251 44.056 193.123 44.36 192.867 44.616C192.611 44.872 192.307 45 191.955 45H182.547ZM203.506 45C203.218 45 202.962 44.904 202.738 44.712C202.546 44.488 202.45 44.232 202.45 43.944C202.45 43.72 202.514 43.512 202.642 43.32L208.93 34.92C208.77 34.92 208.642 34.904 208.546 34.872C206.818 34.68 205.058 34.136 203.266 33.24C201.474 32.344 199.97 31.08 198.754 29.448C197.538 27.784 196.93 25.784 196.93 23.448C196.93 21.208 197.506 19.144 198.658 17.256C199.842 15.336 201.57 13.8 203.842 12.648C206.146 11.496 208.898 10.92 212.098 10.92C215.362 10.92 218.162 11.432 220.498 12.456C222.866 13.448 224.658 14.856 225.874 16.68C227.09 18.472 227.698 20.568 227.698 22.968C227.698 24.76 227.298 26.424 226.498 27.96C225.698 29.496 224.466 31.384 222.802 33.624L221.362 35.592L215.026 44.04C214.578 44.68 213.954 45 213.154 45H203.506ZM212.242 26.52C213.202 26.52 213.954 26.248 214.498 25.704C215.042 25.16 215.314 24.392 215.314 23.4C215.314 22.408 215.026 21.64 214.45 21.096C213.906 20.552 213.17 20.28 212.242 20.28C211.314 20.28 210.562 20.552 209.986 21.096C209.442 21.64 209.17 22.408 209.17 23.4C209.17 24.392 209.442 25.16 209.986 25.704C210.53 26.248 211.282 26.52 212.242 26.52Z" fill="#FE9738"/>
<path d="M11.336 42.312L9.53169 44.7088L9.54034 44.7153L9.54902 44.7217L11.336 42.312ZM6.776 32.472L3.77806 32.583L3.77841 32.5927L3.77883 32.6023L6.776 32.472ZM6.776 23.928L3.779 23.7938L3.7784 23.8074L3.77791 23.8209L6.776 23.928ZM11.432 14.232L13.2278 16.6352L13.2362 16.6289L13.2446 16.6225L11.432 14.232ZM30.776 12.216L29.7598 15.0387L29.7717 15.0429L30.776 12.216ZM36.68 16.296L34.3492 18.1847L34.367 18.2067L34.3853 18.2284L36.68 16.296ZM39.032 23.208H42.032V23.1908L42.0318 23.1735L39.032 23.208ZM38.696 23.976L36.5747 21.8547L36.5747 21.8547L38.696 23.976ZM27.032 23.976L25.0796 26.2538L25.1538 26.3174L25.232 26.376L27.032 23.976ZM26.408 22.872L29.237 21.8735L29.2309 21.8563L29.2246 21.8392L26.408 22.872ZM25.016 20.856L23.3519 23.3521L23.3519 23.3522L25.016 20.856ZM20.216 21.192L22.2792 23.3699L22.3087 23.342L22.3373 23.3133L20.216 21.192ZM19.256 24.168L22.2539 24.279L22.2547 24.2576L22.2552 24.2362L19.256 24.168ZM19.256 32.232L22.2552 32.1638L22.2548 32.1462L22.2542 32.1286L19.256 32.232ZM20.216 35.256L18.0947 37.3773L18.1233 37.406L18.1528 37.4339L20.216 35.256ZM26.408 33.528L29.2541 34.4767L29.271 34.4259L29.2861 34.3745L26.408 33.528ZM26.984 32.424L25.184 30.024L25.1058 30.0826L25.0316 30.1462L26.984 32.424ZM38.696 32.472L36.4182 34.4244L36.5684 34.5996L36.7436 34.7498L38.696 32.472ZM39.032 33.192L42.0318 33.2265L42.032 33.2092V33.192H39.032ZM36.68 40.152L34.3688 38.2393L34.3654 38.2435L36.68 40.152ZM30.776 44.184L29.7717 41.3571L29.7598 41.3613L30.776 44.184ZM22.856 42.48C18.4378 42.48 15.2958 41.5136 13.123 39.9023L9.54902 44.7217C13.0722 47.3344 17.6102 48.48 22.856 48.48V42.48ZM13.1403 39.9152C11.1775 38.4377 9.93644 36.097 9.77317 32.3417L3.77883 32.6023C3.99956 37.679 5.79845 41.8983 9.53169 44.7088L13.1403 39.9152ZM9.77394 32.361C9.74417 31.557 9.728 30.1971 9.728 28.248H3.728C3.728 30.2029 3.74383 31.659 3.77806 32.583L9.77394 32.361ZM9.728 28.248C9.728 26.2677 9.74414 24.8735 9.77409 24.0351L3.77791 23.8209C3.74386 24.7745 3.728 26.2603 3.728 28.248H9.728ZM9.773 24.0622C9.93287 20.4918 11.1692 18.1735 13.2278 16.6352L9.63623 11.8288C5.87083 14.6425 4.00313 18.7882 3.779 23.7938L9.773 24.0622ZM13.2446 16.6225C15.5021 14.9108 18.6173 13.92 22.856 13.92V7.92C17.6867 7.92 13.1859 9.13723 9.61942 11.8415L13.2446 16.6225ZM22.856 13.92C25.4338 13.92 27.725 14.3061 29.7598 15.0387L31.7922 9.39334C29.027 8.39789 26.0382 7.92 22.856 7.92V13.92ZM29.7717 15.0429C31.727 15.7376 33.2205 16.7919 34.3492 18.1847L39.0108 14.4072C37.1315 12.0881 34.689 10.4224 31.7803 9.38909L29.7717 15.0429ZM34.3853 18.2284C35.4005 19.434 36.0068 21.0315 36.0322 23.2425L42.0318 23.1735C41.9932 19.8165 41.0315 16.806 38.9747 14.3636L34.3853 18.2284ZM36.032 23.208C36.032 22.9511 36.0845 22.6765 36.1995 22.4135C36.3122 22.1561 36.4573 21.9721 36.5747 21.8547L40.8173 26.0973C41.5422 25.3725 42.032 24.375 42.032 23.208H36.032ZM36.5747 21.8547C36.7512 21.6782 36.9817 21.517 37.2578 21.4066C37.5305 21.2975 37.7818 21.264 37.976 21.264V27.264C39.0061 27.264 40.0259 26.8887 40.8173 26.0973L36.5747 21.8547ZM37.976 21.264H28.184V27.264H37.976V21.264ZM28.184 21.264C28.1057 21.264 28.136 21.2557 28.2396 21.2816C28.3464 21.3083 28.574 21.3825 28.832 21.576L25.232 26.376C26.2362 27.1291 27.3835 27.264 28.184 27.264V21.264ZM28.9844 21.6982C29.1113 21.8071 29.1948 21.905 29.2423 21.9666C29.2904 22.0288 29.3146 22.0708 29.3197 22.0798C29.3266 22.0921 29.2941 22.0355 29.237 21.8735L23.579 23.8705C23.8081 24.5196 24.2291 25.5248 25.0796 26.2538L28.9844 21.6982ZM29.2246 21.8392C28.7531 20.5534 27.9845 19.2294 26.6801 18.3598L23.3519 23.3522C23.2728 23.2994 23.273 23.2739 23.3273 23.3526C23.3847 23.4356 23.4817 23.6056 23.5914 23.9048L29.2246 21.8392ZM26.6801 18.3598C25.485 17.5631 24.1237 17.28 22.808 17.28V23.28C23.2843 23.28 23.395 23.3809 23.3519 23.3521L26.6801 18.3598ZM22.808 17.28C21.1431 17.28 19.4208 17.7446 18.0947 19.0707L22.3373 23.3133C22.3034 23.3473 22.279 23.3509 22.3157 23.3379C22.3656 23.3204 22.5142 23.28 22.808 23.28V17.28ZM18.1528 19.0141C16.6745 20.4146 16.2953 22.4061 16.2568 24.0998L22.2552 24.2362C22.2668 23.7274 22.3291 23.4317 22.3751 23.289C22.4179 23.1564 22.4193 23.2372 22.2792 23.3699L18.1528 19.0141ZM16.2581 24.057C16.2239 24.9793 16.208 26.3533 16.208 28.152H22.208C22.208 26.3667 22.2241 25.0847 22.2539 24.279L16.2581 24.057ZM16.208 28.152C16.208 29.9531 16.224 31.3545 16.2578 32.3354L22.2542 32.1286C22.224 31.2535 22.208 29.9349 22.208 28.152H16.208ZM16.2568 32.3002C16.2957 34.014 16.6821 35.9648 18.0947 37.3773L22.3373 33.1347C22.4423 33.2397 22.427 33.2861 22.3794 33.1363C22.3288 32.977 22.2668 32.6709 22.2552 32.1638L16.2568 32.3002ZM18.1528 37.4339C19.4845 38.6955 21.1854 39.12 22.808 39.12V33.12C22.4992 33.12 22.3338 33.0797 22.2687 33.0579C22.2157 33.0403 22.2379 33.039 22.2792 33.0781L18.1528 37.4339ZM22.808 39.12C24.2001 39.12 25.6094 38.7847 26.8289 37.9066C28.0488 37.0283 28.8137 35.7978 29.2541 34.4767L23.562 32.5793C23.4926 32.7874 23.4255 32.9061 23.3842 32.9663C23.346 33.0221 23.3244 33.0365 23.3231 33.0374C23.3218 33.0383 23.3009 33.0546 23.2348 33.0734C23.1636 33.0938 23.0287 33.12 22.808 33.12V39.12ZM29.2861 34.3745C29.3295 34.2268 29.3519 34.1931 29.3318 34.2317C29.3199 34.2544 29.2882 34.3119 29.2302 34.39C29.1724 34.4679 29.0775 34.5808 28.9364 34.7018L25.0316 30.1462C24.1187 30.9287 23.7268 32.0122 23.5299 32.6815L29.2861 34.3745ZM28.784 34.824C28.5054 35.033 28.2652 35.1038 28.1761 35.1252C28.0869 35.1466 28.0771 35.136 28.184 35.136V29.136C27.4009 29.136 26.2121 29.2529 25.184 30.024L28.784 34.824ZM28.184 35.136H37.976V29.136H28.184V35.136ZM37.976 35.136C37.7205 35.136 37.4144 35.0837 37.1033 34.9385C36.7942 34.7943 36.5684 34.5995 36.4182 34.4244L40.9738 30.5196C40.2278 29.6493 39.164 29.136 37.976 29.136V35.136ZM36.7436 34.7498C36.5685 34.5996 36.3737 34.3738 36.2295 34.0647C36.0843 33.7536 36.032 33.4475 36.032 33.192H42.032C42.032 32.004 41.5187 30.9402 40.6484 30.1942L36.7436 34.7498ZM36.0322 33.1575C36.0068 35.3673 35.4006 36.9926 34.3688 38.2393L38.9912 42.0647C41.0314 39.5994 41.9932 36.5847 42.0318 33.2265L36.0322 33.1575ZM34.3654 38.2435C33.2383 39.6104 31.7403 40.6577 29.7717 41.3571L31.7803 47.0109C34.6757 45.9823 37.1137 44.3416 38.9946 42.0605L34.3654 38.2435ZM29.7598 41.3613C27.725 42.0939 25.4338 42.48 22.856 42.48V48.48C26.0382 48.48 29.027 48.0021 31.7922 47.0067L29.7598 41.3613ZM41.6911 34.776L38.6978 34.9756L38.6979 34.9773L41.6911 34.776ZM41.6911 30.264L44.6845 30.4636L44.685 30.4563L41.6911 30.264ZM65.5471 22.296L63.7471 24.696L63.7471 24.696L65.5471 22.296ZM69.5311 30.264L66.5373 30.4563L66.5378 30.4636L69.5311 30.264ZM69.5311 34.776L72.5244 34.9773L72.5245 34.9756L69.5311 34.776ZM57.2911 37.128L59.8959 38.6164L59.9176 38.5784L59.9382 38.5398L57.2911 37.128ZM57.7711 34.536L54.786 34.2375L54.7788 34.3098L54.7751 34.3824L57.7711 34.536ZM57.7711 30.504L54.7804 30.7401L54.7829 30.7713L54.786 30.8025L57.7711 30.504ZM57.2431 27.96L59.8902 26.5482L59.8902 26.5482L57.2431 27.96ZM53.9791 27.96L51.3321 26.5482L51.3321 26.5482L53.9791 27.96ZM53.4511 30.504L50.4604 30.2679L50.4539 30.3501L50.452 30.4326L53.4511 30.504ZM53.4031 32.52L50.404 32.4486L50.4023 32.52L50.404 32.5914L53.4031 32.52ZM53.4511 34.536L50.452 34.6074L50.453 34.6485L50.4551 34.6896L53.4511 34.536ZM53.9311 37.128L51.2841 38.5398L51.3047 38.5784L51.3264 38.6164L53.9311 37.128ZM55.6111 42.48C51.5554 42.48 48.95 41.6486 47.3599 40.4258C45.8713 39.2812 44.8805 37.4906 44.6844 34.5747L38.6979 34.9773C38.9817 39.1974 40.5509 42.7588 43.7024 45.1822C46.7523 47.5274 50.8668 48.48 55.6111 48.48V42.48ZM44.6845 34.5764C44.6595 34.2022 44.6431 33.5342 44.6431 32.52H38.6431C38.6431 33.5538 38.6587 34.3898 38.6978 34.9756L44.6845 34.5764ZM44.6431 32.52C44.6431 31.5058 44.6595 30.8378 44.6845 30.4636L38.6978 30.0644C38.6587 30.6502 38.6431 31.4862 38.6431 32.52H44.6431ZM44.685 30.4563C44.8621 27.6975 45.8536 25.9121 47.4751 24.696L43.8751 19.896C40.6327 22.3279 38.9681 25.8545 38.6973 30.0717L44.685 30.4563ZM47.4751 24.696C49.2232 23.3849 51.8269 22.56 55.6111 22.56V16.56C51.0114 16.56 46.991 17.5591 43.8751 19.896L47.4751 24.696ZM55.6111 22.56C59.3954 22.56 61.999 23.3849 63.7471 24.696L67.3471 19.896C64.2312 17.5591 60.2109 16.56 55.6111 16.56V22.56ZM63.7471 24.696C65.3687 25.9121 66.3601 27.6975 66.5373 30.4563L72.525 30.0717C72.2541 25.8545 70.5896 22.3279 67.3471 19.896L63.7471 24.696ZM66.5378 30.4636C66.6001 31.3992 66.6271 32.0744 66.6271 32.52H72.6271C72.6271 31.8776 72.5901 31.0488 72.5245 30.0644L66.5378 30.4636ZM66.6271 32.52C66.6271 32.9656 66.6001 33.6408 66.5378 34.5764L72.5245 34.9756C72.5901 33.9912 72.6271 33.1624 72.6271 32.52H66.6271ZM66.5379 34.5747C66.3417 37.4906 65.3509 39.2812 63.8624 40.4258C62.2723 41.6486 59.6668 42.48 55.6111 42.48V48.48C60.3554 48.48 64.47 47.5274 67.5199 45.1822C70.6713 42.7588 72.2405 39.1974 72.5244 34.9773L66.5379 34.5747ZM55.6111 40.8C56.798 40.8 58.8151 40.5077 59.8959 38.6164L54.6864 35.6396C54.9494 35.1794 55.3268 34.9418 55.565 34.8466C55.7572 34.7697 55.8133 34.8 55.6111 34.8V40.8ZM59.9382 38.5398C60.5369 37.4172 60.7026 35.9497 60.7672 34.6896L54.7751 34.3824C54.7473 34.9247 54.7016 35.3129 54.6533 35.5737C54.5993 35.8651 54.5663 35.8621 54.6441 35.7162L59.9382 38.5398ZM60.7562 34.8345C60.8058 34.3387 60.8191 33.5123 60.8191 32.52H54.8191C54.8191 33.5757 54.8004 34.0933 54.786 34.2375L60.7562 34.8345ZM60.8191 32.52C60.8191 31.5277 60.8058 30.7013 60.7562 30.2055L54.786 30.8025C54.8004 30.9467 54.8191 31.4643 54.8191 32.52H60.8191ZM60.7618 30.2679C60.6639 29.027 60.4642 27.6245 59.8902 26.5482L54.5961 29.3718C54.5343 29.256 54.5698 29.2769 54.6297 29.5656C54.6842 29.828 54.7387 30.2113 54.7804 30.7401L60.7618 30.2679ZM59.8902 26.5482C58.8678 24.6312 56.9092 24.24 55.6111 24.24V30.24C55.7654 30.24 55.6619 30.2661 55.4322 30.1648C55.1505 30.0405 54.814 29.7804 54.5961 29.3718L59.8902 26.5482ZM55.6111 24.24C54.313 24.24 52.3545 24.6312 51.3321 26.5482L56.6262 29.3718C56.4083 29.7804 56.0717 30.0405 55.79 30.1648C55.5603 30.2661 55.4569 30.24 55.6111 30.24V24.24ZM51.3321 26.5482C50.758 27.6245 50.5584 29.027 50.4604 30.2679L56.4418 30.7401C56.4836 30.2113 56.5381 29.828 56.5925 29.5656C56.6524 29.2769 56.6879 29.256 56.6262 29.3718L51.3321 26.5482ZM50.452 30.4326L50.404 32.4486L56.4023 32.5914L56.4503 30.5754L50.452 30.4326ZM50.404 32.5914L50.452 34.6074L56.4503 34.4646L56.4023 32.4486L50.404 32.5914ZM50.4551 34.6896C50.5197 35.9497 50.6854 37.4172 51.2841 38.5398L56.5782 35.7162C56.656 35.8621 56.6229 35.8651 56.569 35.5737C56.5207 35.3129 56.475 34.9247 56.4472 34.3824L50.4551 34.6896ZM51.3264 38.6164C52.4071 40.5077 54.4243 40.8 55.6111 40.8V34.8C55.409 34.8 55.465 34.7697 55.6573 34.8466C55.8954 34.9418 56.2729 35.1794 56.5359 35.6396L51.3264 38.6164ZM80.2888 44.712L78.1674 46.8333L78.2489 46.9148L78.3364 46.9898L80.2888 44.712ZM79.6648 43.8L76.8927 44.9471L76.9336 45.0459L76.9815 45.1416L79.6648 43.8ZM70.4488 21.528L67.6027 22.4767L67.6362 22.5772L67.6767 22.6751L70.4488 21.528ZM70.7368 20.376L72.8581 22.4973L72.8581 22.4973L70.7368 20.376ZM81.2488 21.192L84.0862 20.2178L84.0725 20.178L84.0577 20.1386L81.2488 21.192ZM85.0888 32.376L82.2513 33.3502L85.0888 41.6142L87.9262 33.3502L85.0888 32.376ZM88.9288 21.192L86.1198 20.1386L86.105 20.178L86.0913 20.2178L88.9288 21.192ZM99.4408 20.376L97.3194 22.4973L97.3194 22.4973L99.4408 20.376ZM99.7288 21.528L102.501 22.6751L102.541 22.5772L102.575 22.4767L99.7288 21.528ZM90.5128 43.8L93.196 45.1416L93.2439 45.0459L93.2848 44.9471L90.5128 43.8ZM89.8888 44.712L91.8411 46.9898L91.9286 46.9148L92.0101 46.8333L89.8888 44.712ZM81.2488 42C81.2582 42 81.7353 42.0006 82.2411 42.4342L78.3364 46.9898C79.2902 47.8074 80.4073 48 81.2488 48V42ZM82.4101 42.5907C82.4483 42.629 82.4564 42.6449 82.4407 42.6219C82.4251 42.5992 82.3927 42.5478 82.348 42.4584L76.9815 45.1416C77.27 45.7187 77.6506 46.3165 78.1674 46.8333L82.4101 42.5907ZM82.4368 42.6529L73.2208 20.3809L67.6767 22.6751L76.8927 44.9471L82.4368 42.6529ZM73.2948 20.5793C73.3877 20.8579 73.4008 21.079 73.4008 21.192H67.4008C67.4008 21.561 67.4458 22.0061 67.6027 22.4767L73.2948 20.5793ZM73.4008 21.192C73.4008 21.3892 73.3646 21.6332 73.2588 21.8902C73.1527 22.1479 73.0044 22.351 72.8581 22.4973L68.6154 18.2547C67.8224 19.0477 67.4008 20.0854 67.4008 21.192H73.4008ZM72.8581 22.4973C72.7118 22.6436 72.5087 22.7919 72.251 22.898C71.9939 23.0039 71.7499 23.04 71.5527 23.04V17.04C70.4462 17.04 69.4084 17.4617 68.6154 18.2547L72.8581 22.4973ZM71.5527 23.04H79.6648V17.04H71.5527V23.04ZM79.6648 23.04C79.53 23.04 79.207 22.9976 78.8722 22.7542C78.5526 22.5218 78.4492 22.2705 78.4398 22.2454L84.0577 20.1386C83.7603 19.3455 83.2489 18.5182 82.4013 17.9018C81.5385 17.2743 80.5675 17.04 79.6648 17.04V23.04ZM78.4113 22.1662L82.2513 33.3502L87.9262 31.4018L84.0862 20.2178L78.4113 22.1662ZM87.9262 33.3502L91.7662 22.1662L86.0913 20.2178L82.2513 31.4018L87.9262 33.3502ZM91.7377 22.2454C91.7283 22.2705 91.6249 22.5218 91.3053 22.7542C90.9705 22.9976 90.6475 23.04 90.5128 23.04V17.04C89.61 17.04 88.639 17.2743 87.7762 17.9018C86.9286 18.5182 86.4172 19.3455 86.1198 20.1386L91.7377 22.2454ZM90.5128 23.04H98.6248V17.04H90.5128V23.04ZM98.6248 23.04C98.4276 23.04 98.1836 23.0039 97.9265 22.898C97.6688 22.7919 97.4657 22.6436 97.3194 22.4973L101.562 18.2547C100.769 17.4617 99.7313 17.04 98.6248 17.04V23.04ZM97.3194 22.4973C97.1731 22.351 97.0248 22.1479 96.9187 21.8903C96.8129 21.6332 96.7768 21.3892 96.7768 21.192H102.777C102.777 20.0854 102.355 19.0477 101.562 18.2547L97.3194 22.4973ZM96.7768 21.192C96.7768 21.0789 96.7898 20.8579 96.8827 20.5793L102.575 22.4767C102.732 22.0061 102.777 21.5611 102.777 21.192H96.7768ZM96.9567 20.3809L87.7407 42.6529L93.2848 44.9471L102.501 22.6751L96.9567 20.3809ZM87.8295 42.4584C87.7848 42.5477 87.7524 42.5992 87.7368 42.6219C87.7211 42.6449 87.7292 42.629 87.7674 42.5907L92.0101 46.8333C92.5269 46.3165 92.9075 45.7187 93.196 45.1416L87.8295 42.4584ZM87.9364 42.4342C88.4422 42.0006 88.9193 42 88.9288 42V48C89.7702 48 90.8873 47.8074 91.8411 46.9898L87.9364 42.4342ZM88.9288 42H81.2488V48H88.9288V42ZM102.987 17.016L100.866 19.1373L100.866 19.1373L102.987 17.016ZM102.987 9.384L105.108 11.5053L105.108 11.5053L102.987 9.384ZM112.923 9.384L115.044 7.26268L115.044 7.26268L112.923 9.384ZM112.923 17.016L115.044 19.1373L115.044 19.1373L112.923 17.016ZM113.163 20.424L111.042 22.5453L111.042 22.5453L113.163 20.424ZM113.163 44.616L111.042 42.4947L111.042 42.4947L113.163 44.616ZM103.899 14.4C104.096 14.4 104.331 14.4377 104.571 14.5391C104.81 14.6398 104.989 14.7751 105.108 14.8947L100.866 19.1373C101.666 19.938 102.726 20.4 103.899 20.4V14.4ZM105.108 14.8947C105.228 15.0142 105.363 15.1927 105.464 15.4318C105.565 15.6726 105.603 15.9074 105.603 16.104H99.6031C99.6031 17.2767 100.065 18.3367 100.866 19.1373L105.108 14.8947ZM105.603 16.104V10.296H99.6031V16.104H105.603ZM105.603 10.296C105.603 10.4926 105.565 10.7274 105.464 10.9682C105.363 11.2073 105.228 11.3858 105.108 11.5053L100.866 7.26268C100.065 8.06333 99.6031 9.12331 99.6031 10.296H105.603ZM105.108 11.5053C104.989 11.6249 104.81 11.7602 104.571 11.8609C104.331 11.9623 104.096 12 103.899 12V6C102.726 6 101.666 6.46202 100.866 7.26268L105.108 11.5053ZM103.899 12H112.011V6H103.899V12ZM112.011 12C111.814 12 111.58 11.9623 111.339 11.8609C111.1 11.7602 110.921 11.6249 110.802 11.5053L115.044 7.26268C114.244 6.46202 113.184 6 112.011 6V12ZM110.802 11.5053C110.682 11.3858 110.547 11.2073 110.446 10.9682C110.345 10.7274 110.307 10.4926 110.307 10.296H116.307C116.307 9.12331 115.845 8.06334 115.044 7.26268L110.802 11.5053ZM110.307 10.296V16.104H116.307V10.296H110.307ZM110.307 16.104C110.307 15.9074 110.345 15.6726 110.446 15.4318C110.547 15.1927 110.682 15.0142 110.802 14.8947L115.044 19.1373C115.845 18.3367 116.307 17.2767 116.307 16.104H110.307ZM110.802 14.8947C110.921 14.7751 111.1 14.6398 111.339 14.5391C111.58 14.4377 111.814 14.4 112.011 14.4V20.4C113.184 20.4 114.244 19.938 115.044 19.1373L110.802 14.8947ZM112.011 14.4H103.899V20.4H112.011V14.4ZM103.659 42C103.856 42 104.091 42.0377 104.331 42.1391C104.57 42.2398 104.749 42.3751 104.868 42.4947L100.626 46.7373C101.426 47.538 102.486 48 103.659 48V42ZM104.868 42.4947C104.988 42.6142 105.123 42.7927 105.224 43.0318C105.325 43.2726 105.363 43.5074 105.363 43.704H99.3631C99.3631 44.8767 99.8251 45.9367 100.626 46.7373L104.868 42.4947ZM105.363 43.704V21.336H99.3631V43.704H105.363ZM105.363 21.336C105.363 21.5326 105.325 21.7674 105.224 22.0082C105.123 22.2473 104.988 22.4258 104.868 22.5453L100.626 18.3027C99.8252 19.1033 99.3631 20.1633 99.3631 21.336H105.363ZM104.868 22.5453C104.749 22.6649 104.57 22.8002 104.331 22.9009C104.091 23.0023 103.856 23.04 103.659 23.04V17.04C102.486 17.04 101.426 17.502 100.626 18.3027L104.868 22.5453ZM103.659 23.04H112.251V17.04H103.659V23.04ZM112.251 23.04C112.054 23.04 111.82 23.0023 111.579 22.9009C111.34 22.8002 111.161 22.6649 111.042 22.5453L115.284 18.3027C114.484 17.502 113.424 17.04 112.251 17.04V23.04ZM111.042 22.5453C110.922 22.4258 110.787 22.2473 110.686 22.0082C110.585 21.7674 110.547 21.5326 110.547 21.336H116.547C116.547 20.1633 116.085 19.1033 115.284 18.3027L111.042 22.5453ZM110.547 21.336V43.704H116.547V21.336H110.547ZM110.547 43.704C110.547 43.5074 110.585 43.2726 110.686 43.0318C110.787 42.7927 110.922 42.6142 111.042 42.4947L115.284 46.7373C116.085 45.9367 116.547 44.8767 116.547 43.704H110.547ZM111.042 42.4947C111.161 42.3751 111.34 42.2398 111.579 42.1391C111.82 42.0377 112.054 42 112.251 42V48C113.424 48 114.484 47.538 115.284 46.7373L111.042 42.4947ZM112.251 42H103.659V48H112.251V42ZM120.231 42.792L122.333 40.652L122.333 40.652L120.231 42.792ZM117.255 34.392L114.256 34.467L114.256 34.4925L114.257 34.5179L117.255 34.392ZM117.207 32.472L114.208 32.3951L114.206 32.471L114.208 32.547L117.207 32.472ZM117.255 30.6L114.257 30.4939L114.256 30.5085L114.256 30.5231L117.255 30.6ZM120.231 22.392L122.352 24.5133L122.352 24.5133L120.231 22.392ZM133.815 21.816L131.803 24.0416L136.815 28.5714V21.816H133.815ZM134.199 11.304L136.32 13.4253L136.32 13.4253L134.199 11.304ZM134.919 44.616L132.797 46.7373L132.797 46.7373L134.919 44.616ZM134.535 42.6H137.535V34.6723L132.286 40.6139L134.535 42.6ZM133.191 36.216L135.55 38.0695L135.58 38.0303L135.61 37.9901L133.191 36.216ZM133.815 34.104L136.808 34.3104L136.808 34.3036L133.815 34.104ZM133.815 30.552L136.808 30.3524L136.807 30.3326L136.805 30.3128L133.815 30.552ZM133.143 28.776L130.853 30.7138L130.933 30.8091L131.021 30.8973L133.143 28.776ZM129.639 28.824L127.28 26.9705L127.237 27.0245L127.198 27.0803L129.639 28.824ZM129.015 30.936L126.03 30.6375L126.03 30.6375L129.015 30.936ZM129.015 34.104L126.03 34.4025L126.03 34.4025L129.015 34.104ZM129.639 36.216L127.198 37.9597L127.237 38.0155L127.28 38.0695L129.639 36.216ZM127.431 42.48C125.102 42.48 123.504 41.8026 122.333 40.652L118.128 44.932C120.605 47.3654 123.807 48.48 127.431 48.48V42.48ZM122.333 40.652C121.267 39.6043 120.396 37.6795 120.252 34.2661L114.257 34.5179C114.434 38.7205 115.547 42.3957 118.128 44.932L122.333 40.652ZM120.254 34.317L120.206 32.397L114.208 32.547L114.256 34.467L120.254 34.317ZM120.206 32.5489L120.254 30.6769L114.256 30.5231L114.208 32.3951L120.206 32.5489ZM120.253 30.7061C120.364 27.5587 121.208 25.6577 122.352 24.5133L118.109 20.2707C115.542 22.8383 114.401 26.4093 114.257 30.4939L120.253 30.7061ZM122.352 24.5133C123.624 23.2417 125.235 22.56 127.431 22.56V16.56C123.803 16.56 120.614 17.7663 118.109 20.2707L122.352 24.5133ZM127.431 22.56C129.403 22.56 130.776 23.113 131.803 24.0416L135.826 19.5904C133.526 17.511 130.643 16.56 127.431 16.56V22.56ZM136.815 21.816V12.216H130.815V21.816H136.815ZM136.815 12.216C136.815 12.4126 136.777 12.6474 136.676 12.8882C136.575 13.1273 136.44 13.3058 136.32 13.4253L132.077 9.18268C131.277 9.98333 130.815 11.0433 130.815 12.216H136.815ZM136.32 13.4253C136.201 13.5449 136.022 13.6802 135.783 13.7809C135.542 13.8823 135.307 13.92 135.111 13.92V7.92C133.938 7.92 132.878 8.38202 132.077 9.18268L136.32 13.4253ZM135.111 13.92H143.991V7.92H135.111V13.92ZM143.991 13.92C143.794 13.92 143.559 13.8823 143.319 13.7809C143.079 13.6802 142.901 13.5449 142.781 13.4253L147.024 9.18268C146.223 8.38202 145.163 7.92 143.991 7.92V13.92ZM142.781 13.4253C142.662 13.3058 142.527 13.1273 142.426 12.8882C142.324 12.6474 142.287 12.4126 142.287 12.216H148.287C148.287 11.0433 147.825 9.98333 147.024 9.18268L142.781 13.4253ZM142.287 12.216V43.704H148.287V12.216H142.287ZM142.287 43.704C142.287 43.5074 142.324 43.2726 142.426 43.0318C142.527 42.7927 142.662 42.6142 142.781 42.4947L147.024 46.7373C147.825 45.9367 148.287 44.8767 148.287 43.704H142.287ZM142.781 42.4947C142.901 42.3751 143.079 42.2398 143.319 42.1391C143.559 42.0377 143.794 42 143.991 42V48C145.163 48 146.223 47.538 147.024 46.7373L142.781 42.4947ZM143.991 42H135.831V48H143.991V42ZM135.831 42C136.027 42 136.262 42.0377 136.503 42.1391C136.742 42.2398 136.921 42.3751 137.04 42.4947L132.797 46.7373C133.598 47.538 134.658 48 135.831 48V42ZM137.04 42.4947C137.16 42.6142 137.295 42.7927 137.396 43.0318C137.497 43.2726 137.535 43.5074 137.535 43.704H131.535C131.535 44.8767 131.997 45.9367 132.797 46.7373L137.04 42.4947ZM137.535 43.704V42.6H131.535V43.704H137.535ZM132.286 40.6139C131.267 41.7681 129.787 42.48 127.431 42.48V48.48C131.155 48.48 134.411 47.2719 136.783 44.5861L132.286 40.6139ZM131.415 39.888C132.727 39.888 134.403 39.5285 135.55 38.0695L130.832 34.3625C131.03 34.1103 131.264 33.9735 131.421 33.9141C131.552 33.8645 131.576 33.888 131.415 33.888V39.888ZM135.61 37.9901C136.437 36.8625 136.725 35.5121 136.808 34.3104L130.822 33.8976C130.801 34.1984 130.762 34.3826 130.734 34.478C130.706 34.5725 130.701 34.5377 130.772 34.4419L135.61 37.9901ZM136.808 34.3036C136.869 33.3856 136.911 32.6757 136.911 32.328H130.911C130.911 32.3253 130.911 32.3584 130.907 32.4474C130.904 32.5297 130.899 32.6389 130.891 32.7781C130.876 33.0563 130.853 33.4303 130.821 33.9044L136.808 34.3036ZM136.911 32.328C136.911 31.9803 136.869 31.2704 136.808 30.3524L130.821 30.7516C130.853 31.2257 130.876 31.5997 130.891 31.8779C130.899 32.0171 130.904 32.1263 130.907 32.2086C130.911 32.2976 130.911 32.3307 130.911 32.328H136.911ZM136.805 30.3128C136.711 29.132 136.345 27.7357 135.264 26.6547L131.021 30.8973C130.867 30.7429 130.807 30.6061 130.793 30.5697C130.782 30.542 130.809 30.6012 130.824 30.7912L136.805 30.3128ZM135.433 26.8382C134.285 25.4815 132.674 25.152 131.415 25.152V31.152C131.568 31.152 131.549 31.1736 131.428 31.1297C131.284 31.0779 131.056 30.9544 130.853 30.7138L135.433 26.8382ZM131.415 25.152C130.103 25.152 128.426 25.5115 127.28 26.9705L131.998 30.6775C131.8 30.9297 131.565 31.0665 131.408 31.1259C131.277 31.1755 131.254 31.152 131.415 31.152V25.152ZM127.198 27.0803C126.422 28.1655 126.144 29.4965 126.03 30.6375L132 31.2345C132.035 30.8868 132.083 30.6641 132.12 30.538C132.159 30.4061 132.166 30.4466 132.08 30.5677L127.198 27.0803ZM126.03 30.6375C125.981 31.1193 125.967 31.7779 125.967 32.52H131.967C131.967 31.7901 131.984 31.3927 132 31.2345L126.03 30.6375ZM125.967 32.52C125.967 33.2621 125.981 33.9207 126.03 34.4025L132 33.8055C131.984 33.6473 131.967 33.2499 131.967 32.52H125.967ZM126.03 34.4025C126.144 35.5435 126.422 36.8745 127.198 37.9597L132.08 34.4723C132.166 34.5934 132.159 34.6339 132.12 34.502C132.083 34.3759 132.035 34.1532 132 33.8055L126.03 34.4025ZM127.28 38.0695C128.426 39.5285 130.103 39.888 131.415 39.888V33.888C131.254 33.888 131.277 33.8645 131.408 33.9141C131.565 33.9735 131.8 34.1103 131.998 34.3625L127.28 38.0695ZM150.045 34.92L147.924 37.0413L147.924 37.0413L150.045 34.92ZM150.045 26.28L152.166 28.4013L152.166 28.4013L150.045 26.28ZM167.469 34.92L169.59 37.0413L169.59 37.0413L167.469 34.92ZM150.957 32.304C151.154 32.304 151.389 32.3417 151.629 32.4431C151.868 32.5438 152.047 32.6791 152.166 32.7987L147.924 37.0413C148.724 37.842 149.784 38.304 150.957 38.304V32.304ZM152.166 32.7987C152.286 32.9182 152.421 33.0967 152.522 33.3358C152.623 33.5766 152.661 33.8114 152.661 34.008H146.661C146.661 35.1807 147.123 36.2407 147.924 37.0413L152.166 32.7987ZM152.661 34.008V27.192H146.661V34.008H152.661ZM152.661 27.192C152.661 27.3886 152.623 27.6234 152.522 27.8642C152.421 28.1033 152.286 28.2818 152.166 28.4013L147.924 24.1587C147.123 24.9593 146.661 26.0193 146.661 27.192H152.661ZM152.166 28.4013C152.047 28.5209 151.868 28.6562 151.629 28.7569C151.389 28.8583 151.154 28.896 150.957 28.896V22.896C149.784 22.896 148.724 23.358 147.924 24.1587L152.166 28.4013ZM150.957 28.896H166.557V22.896H150.957V28.896ZM166.557 28.896C166.36 28.896 166.126 28.8583 165.885 28.7569C165.646 28.6562 165.467 28.5209 165.348 28.4013L169.59 24.1587C168.79 23.358 167.73 22.896 166.557 22.896V28.896ZM165.348 28.4013C165.228 28.2818 165.093 28.1033 164.992 27.8642C164.891 27.6234 164.853 27.3886 164.853 27.192H170.853C170.853 26.0193 170.391 24.9593 169.59 24.1587L165.348 28.4013ZM164.853 27.192V34.008H170.853V27.192H164.853ZM164.853 34.008C164.853 33.8114 164.891 33.5766 164.992 33.3358C165.093 33.0967 165.228 32.9182 165.348 32.7987L169.59 37.0413C170.391 36.2407 170.853 35.1807 170.853 34.008H164.853ZM165.348 32.7987C165.467 32.6791 165.646 32.5438 165.885 32.4431C166.126 32.3417 166.36 32.304 166.557 32.304V38.304C167.73 38.304 168.79 37.842 169.59 37.0413L165.348 32.7987ZM166.557 32.304H150.957V38.304H166.557V32.304ZM181.635 44.616L179.514 46.7373L179.514 46.7373L181.635 44.616ZM181.251 24.312H184.251V18.226L179.424 21.9325L181.251 24.312ZM175.875 28.44L174.048 26.0605L174.001 26.097L173.955 26.1353L175.875 28.44ZM174.051 28.056L176.429 26.2269L176.426 26.2228L174.051 28.056ZM169.827 22.584L167.042 23.6982L167.197 24.0863L167.452 24.4172L169.827 22.584ZM169.779 21.24L167.174 19.7516L167.133 19.8239L167.096 19.8984L169.779 21.24ZM170.259 20.712L171.923 23.2081L172.013 23.1483L172.098 23.0822L170.259 20.712ZM181.827 11.736L180.107 9.27831L180.046 9.32061L179.988 9.36583L181.827 11.736ZM182.547 42C182.744 42 182.979 42.0377 183.219 42.1391C183.458 42.2398 183.637 42.3751 183.756 42.4947L179.514 46.7373C180.314 47.538 181.374 48 182.547 48V42ZM183.756 42.4947C183.876 42.6142 184.011 42.7927 184.112 43.0318C184.213 43.2726 184.251 43.5074 184.251 43.704H178.251C178.251 44.8767 178.713 45.9367 179.514 46.7373L183.756 42.4947ZM184.251 43.704V24.312H178.251V43.704H184.251ZM179.424 21.9325L174.048 26.0605L177.702 30.8194L183.078 26.6914L179.424 21.9325ZM173.955 26.1353C174.15 25.9729 174.372 25.8508 174.602 25.774C174.827 25.699 175.021 25.68 175.155 25.68V31.68C176.032 31.68 176.984 31.4212 177.796 30.7447L173.955 26.1353ZM175.155 25.68C175.473 25.68 175.785 25.7661 176.043 25.9123C176.283 26.0477 176.401 26.1908 176.429 26.2269L171.673 29.8851C172.398 30.8268 173.569 31.68 175.155 31.68V25.68ZM176.426 26.2228L172.202 20.7508L167.452 24.4172L171.676 29.8892L176.426 26.2228ZM172.613 21.4698C172.577 21.382 172.574 21.3605 172.582 21.391C172.586 21.4084 172.598 21.4549 172.609 21.525C172.62 21.5926 172.635 21.71 172.635 21.864H166.635C166.635 22.6397 166.898 23.3382 167.042 23.6982L172.613 21.4698ZM172.635 21.864C172.635 22.0849 172.584 22.3388 172.462 22.5816L167.096 19.8984C166.782 20.5252 166.635 21.1951 166.635 21.864H172.635ZM172.384 22.7284C172.308 22.8605 172.162 23.0487 171.923 23.2081L168.595 18.2158C167.972 18.6313 167.506 19.1715 167.174 19.7516L172.384 22.7284ZM172.098 23.0822L183.666 14.1062L179.988 9.36583L168.42 18.3418L172.098 23.0822ZM183.548 14.1937C183.473 14.2456 183.37 14.3017 183.241 14.3428C183.111 14.384 182.987 14.4 182.883 14.4V8.4C181.872 8.4 180.922 8.70782 180.107 9.27831L183.548 14.1937ZM182.883 14.4H191.955V8.4H182.883V14.4ZM191.955 14.4C191.758 14.4 191.524 14.3623 191.283 14.2609C191.044 14.1602 190.865 14.0249 190.746 13.9053L194.988 9.66268C194.188 8.86202 193.128 8.4 191.955 8.4V14.4ZM190.746 13.9053C190.626 13.7858 190.491 13.6073 190.39 13.3682C190.289 13.1274 190.251 12.8926 190.251 12.696H196.251C196.251 11.5233 195.789 10.4633 194.988 9.66268L190.746 13.9053ZM190.251 12.696V43.704H196.251V12.696H190.251ZM190.251 43.704C190.251 43.5074 190.289 43.2726 190.39 43.0318C190.491 42.7927 190.626 42.6142 190.746 42.4947L194.988 46.7373C195.789 45.9367 196.251 44.8767 196.251 43.704H190.251ZM190.746 42.4947C190.865 42.3751 191.044 42.2398 191.283 42.1391C191.524 42.0377 191.758 42 191.955 42V48C193.128 48 194.188 47.538 194.988 46.7373L190.746 42.4947ZM191.955 42H182.547V48H191.955V42ZM202.738 44.712L200.46 46.6644L200.61 46.8396L200.786 46.9898L202.738 44.712ZM202.642 43.32L200.24 41.5222L200.191 41.5878L200.146 41.6559L202.642 43.32ZM208.93 34.92L211.332 36.7178L214.923 31.92H208.93V34.92ZM208.546 34.872L209.495 32.026L209.193 31.9254L208.877 31.8903L208.546 34.872ZM203.266 33.24L204.608 30.5567L204.608 30.5567L203.266 33.24ZM198.754 29.448L196.332 31.218L196.34 31.2293L196.348 31.2404L198.754 29.448ZM198.658 17.256L196.104 15.6813L196.101 15.6874L196.097 15.6934L198.658 17.256ZM203.842 12.648L202.5 9.96472L202.493 9.96849L202.485 9.9723L203.842 12.648ZM220.498 12.456L219.293 15.2036L219.316 15.2135L219.339 15.223L220.498 12.456ZM225.874 16.68L223.378 18.3441L223.385 18.3543L223.391 18.3645L225.874 16.68ZM226.498 27.96L223.837 26.5742L223.837 26.5742L226.498 27.96ZM222.802 33.624L220.394 31.835L220.387 31.8437L220.381 31.8525L222.802 33.624ZM221.362 35.592L223.762 37.392L223.773 37.3778L223.783 37.3635L221.362 35.592ZM215.026 44.04L212.626 42.24L212.596 42.2793L212.568 42.3196L215.026 44.04ZM214.498 25.704L216.619 27.8253L216.619 27.8253L214.498 25.704ZM214.45 21.096L212.329 23.2173L212.359 23.2476L212.39 23.277L214.45 21.096ZM209.986 21.096L207.926 18.915L207.895 18.9444L207.865 18.9747L209.986 21.096ZM209.986 25.704L207.865 27.8253L207.865 27.8253L209.986 25.704ZM203.506 42C203.702 42 203.925 42.0341 204.151 42.119C204.377 42.2036 204.557 42.3201 204.69 42.4342L200.786 46.9898C201.539 47.6354 202.483 48 203.506 48V42ZM205.016 42.7596C205.13 42.8928 205.246 43.0731 205.331 43.2986C205.416 43.5252 205.45 43.7477 205.45 43.944H199.45C199.45 44.967 199.814 45.9112 200.46 46.6644L205.016 42.7596ZM205.45 43.944C205.45 44.3309 205.328 44.6991 205.138 44.9841L200.146 41.6559C199.7 42.3249 199.45 43.1091 199.45 43.944H205.45ZM205.044 45.1178L211.332 36.7178L206.528 33.1222L200.24 41.5222L205.044 45.1178ZM208.93 31.92C208.946 31.92 209.001 31.9206 209.086 31.9312C209.167 31.9413 209.312 31.9652 209.495 32.026L207.597 37.718C208.124 37.8935 208.612 37.92 208.93 37.92V31.92ZM208.877 31.8903C207.55 31.7429 206.13 31.3182 204.608 30.5567L201.924 35.9233C203.985 36.9538 206.086 37.6171 208.215 37.8537L208.877 31.8903ZM204.608 30.5567C203.242 29.8738 202.1 28.9177 201.16 27.6556L196.348 31.2404C197.84 33.2423 199.706 34.8142 201.924 35.9233L204.608 30.5567ZM201.176 27.678C200.385 26.5949 199.93 25.2362 199.93 23.448H193.93C193.93 26.3318 194.691 28.9731 196.332 31.218L201.176 27.678ZM199.93 23.448C199.93 21.7519 200.358 20.2297 201.219 18.8186L196.097 15.6934C194.654 18.0583 193.93 20.6641 193.93 23.448H199.93ZM201.211 18.8307C202.069 17.4395 203.354 16.259 205.199 15.3237L202.485 9.9723C199.786 11.341 197.614 13.2325 196.104 15.6813L201.211 18.8307ZM205.184 15.3313C206.982 14.4319 209.253 13.92 212.098 13.92V7.92C208.543 7.92 205.309 8.5601 202.5 9.96472L205.184 15.3313ZM212.098 13.92C215.059 13.92 217.427 14.3856 219.293 15.2036L221.702 9.70839C218.896 8.47835 215.665 7.92 212.098 7.92V13.92ZM219.339 15.223C221.258 16.0268 222.542 17.0907 223.378 18.3441L228.37 15.0159C226.774 12.6213 224.474 10.8692 221.657 9.68899L219.339 15.223ZM223.391 18.3645C224.234 19.6063 224.698 21.101 224.698 22.968H230.698C230.698 20.035 229.946 17.3377 228.356 14.9955L223.391 18.3645ZM224.698 22.968C224.698 24.2949 224.406 25.4813 223.837 26.5742L229.159 29.3458C230.189 27.3667 230.698 25.2251 230.698 22.968H224.698ZM223.837 26.5742C223.141 27.9108 222.013 29.6555 220.394 31.835L225.21 35.413C226.919 33.1125 228.255 31.0812 229.159 29.3458L223.837 26.5742ZM220.381 31.8525L218.941 33.8205L223.783 37.3635L225.223 35.3955L220.381 31.8525ZM218.962 33.792L212.626 42.24L217.426 45.84L223.762 37.392L218.962 33.792ZM212.568 42.3196C212.592 42.2857 212.682 42.178 212.853 42.0905C213.021 42.0045 213.145 42 213.154 42V48C214.905 48 216.458 47.2251 217.484 45.7604L212.568 42.3196ZM213.154 42H203.506V48H213.154V42ZM212.242 29.52C213.789 29.52 215.381 29.0639 216.619 27.8253L212.377 23.5827C212.398 23.5612 212.424 23.5401 212.452 23.5223C212.48 23.5048 212.5 23.4968 212.505 23.4949C212.515 23.4915 212.442 23.52 212.242 23.52V29.52ZM216.619 27.8253C217.876 26.5687 218.314 24.9469 218.314 23.4H212.314C212.314 23.6266 212.282 23.7174 212.282 23.7185C212.282 23.7186 212.284 23.7137 212.288 23.7047C212.292 23.6958 212.299 23.6838 212.307 23.6696C212.326 23.6397 212.35 23.6095 212.377 23.5827L216.619 27.8253ZM218.314 23.4C218.314 21.8043 217.83 20.1618 216.51 18.915L212.39 23.277C212.367 23.2552 212.343 23.2273 212.322 23.196C212.302 23.165 212.292 23.1417 212.289 23.1334C212.283 23.1182 212.314 23.1906 212.314 23.4H218.314ZM216.571 18.9747C215.352 17.7551 213.79 17.28 212.242 17.28V23.28C212.414 23.28 212.47 23.3052 212.45 23.298C212.44 23.2944 212.419 23.2854 212.393 23.2687C212.367 23.2519 212.345 23.2334 212.329 23.2173L216.571 18.9747ZM212.242 17.28C210.688 17.28 209.153 17.756 207.926 18.915L212.046 23.277C212.042 23.2801 212.034 23.2874 212.021 23.295C212.009 23.3026 212.001 23.3055 212.002 23.3051C212.003 23.3048 212.071 23.28 212.242 23.28V17.28ZM207.865 18.9747C206.608 20.2313 206.17 21.8531 206.17 23.4H212.17C212.17 23.1734 212.201 23.0826 212.202 23.0815C212.202 23.0814 212.2 23.0863 212.196 23.0952C212.192 23.1042 212.185 23.1162 212.176 23.1304C212.158 23.1603 212.134 23.1905 212.107 23.2173L207.865 18.9747ZM206.17 23.4C206.17 24.9469 206.608 26.5687 207.865 27.8253L212.107 23.5827C212.134 23.6095 212.158 23.6397 212.176 23.6696C212.185 23.6838 212.192 23.6958 212.196 23.7047C212.2 23.7137 212.202 23.7186 212.202 23.7185C212.201 23.7174 212.17 23.6266 212.17 23.4H206.17ZM207.865 27.8253C209.103 29.0639 210.695 29.52 212.242 29.52V23.52C212.042 23.52 211.969 23.4915 211.978 23.4949C211.984 23.4968 212.003 23.5048 212.031 23.5223C212.06 23.5401 212.086 23.5612 212.107 23.5827L207.865 27.8253Z" fill="#FE9738"/>
</g>
<path d="M22.856 45.48C18.024 45.48 14.184 44.424 11.336 42.312C8.488 40.168 6.968 36.888 6.776 32.472C6.744 31.608 6.728 30.2 6.728 28.248C6.728 26.264 6.744 24.824 6.776 23.928C6.968 19.64 8.52 16.408 11.432 14.232C14.344 12.024 18.152 10.92 22.856 10.92C25.736 10.92 28.376 11.352 30.776 12.216C33.208 13.08 35.176 14.44 36.68 16.296C38.216 18.12 39 20.424 39.032 23.208C39.032 23.496 38.92 23.752 38.696 23.976C38.504 24.168 38.264 24.264 37.976 24.264H28.184C27.672 24.264 27.288 24.168 27.032 23.976C26.808 23.784 26.6 23.416 26.408 22.872C26.056 21.912 25.592 21.24 25.016 20.856C24.44 20.472 23.704 20.28 22.808 20.28C21.688 20.28 20.824 20.584 20.216 21.192C19.608 21.768 19.288 22.76 19.256 24.168C19.224 25.032 19.208 26.36 19.208 28.152C19.208 29.944 19.224 31.304 19.256 32.232C19.288 33.64 19.608 34.648 20.216 35.256C20.824 35.832 21.688 36.12 22.808 36.12C24.632 36.12 25.832 35.256 26.408 33.528C26.568 32.984 26.76 32.616 26.984 32.424C27.24 32.232 27.64 32.136 28.184 32.136H37.976C38.264 32.136 38.504 32.248 38.696 32.472C38.92 32.664 39.032 32.904 39.032 33.192C39 35.976 38.216 38.296 36.68 40.152C35.176 41.976 33.208 43.32 30.776 44.184C28.376 45.048 25.736 45.48 22.856 45.48ZM55.6111 45.48C46.8111 45.48 42.1711 41.912 41.6911 34.776C41.6591 34.296 41.6431 33.544 41.6431 32.52C41.6431 31.496 41.6591 30.744 41.6911 30.264C41.9151 26.776 43.2431 24.12 45.6751 22.296C48.1071 20.472 51.4191 19.56 55.6111 19.56C59.8031 19.56 63.1151 20.472 65.5471 22.296C67.9791 24.12 69.3071 26.776 69.5311 30.264C69.5951 31.224 69.6271 31.976 69.6271 32.52C69.6271 33.064 69.5951 33.816 69.5311 34.776C69.0511 41.912 64.4111 45.48 55.6111 45.48ZM55.6111 37.8C56.4751 37.8 57.0351 37.576 57.2911 37.128C57.5471 36.648 57.7071 35.784 57.7711 34.536C57.8031 34.216 57.8191 33.544 57.8191 32.52C57.8191 31.496 57.8031 30.824 57.7711 30.504C57.6751 29.288 57.4991 28.44 57.2431 27.96C56.9871 27.48 56.4431 27.24 55.6111 27.24C54.7791 27.24 54.2351 27.48 53.9791 27.96C53.7231 28.44 53.5471 29.288 53.4511 30.504L53.4031 32.52L53.4511 34.536C53.5151 35.784 53.6751 36.648 53.9311 37.128C54.1871 37.576 54.7471 37.8 55.6111 37.8ZM81.2488 45C80.8328 45 80.5128 44.904 80.2888 44.712C80.0648 44.488 79.8568 44.184 79.6648 43.8L70.4488 21.528C70.4168 21.432 70.4008 21.32 70.4008 21.192C70.4008 20.872 70.5128 20.6 70.7368 20.376C70.9608 20.152 71.2328 20.04 71.5527 20.04H79.6648C80.4328 20.04 80.9608 20.424 81.2488 21.192L85.0888 32.376L88.9288 21.192C89.2168 20.424 89.7448 20.04 90.5128 20.04H98.6248C98.9448 20.04 99.2168 20.152 99.4408 20.376C99.6648 20.6 99.7768 20.872 99.7768 21.192C99.7768 21.32 99.7608 21.432 99.7288 21.528L90.5128 43.8C90.3208 44.184 90.1128 44.488 89.8888 44.712C89.6648 44.904 89.3448 45 88.9288 45H81.2488ZM103.899 17.4C103.547 17.4 103.243 17.272 102.987 17.016C102.731 16.76 102.603 16.456 102.603 16.104V10.296C102.603 9.944 102.731 9.64 102.987 9.384C103.243 9.128 103.547 9 103.899 9H112.011C112.363 9 112.667 9.128 112.923 9.384C113.179 9.64 113.307 9.944 113.307 10.296V16.104C113.307 16.456 113.179 16.76 112.923 17.016C112.667 17.272 112.363 17.4 112.011 17.4H103.899ZM103.659 45C103.307 45 103.003 44.872 102.747 44.616C102.491 44.36 102.363 44.056 102.363 43.704V21.336C102.363 20.984 102.491 20.68 102.747 20.424C103.003 20.168 103.307 20.04 103.659 20.04H112.251C112.603 20.04 112.907 20.168 113.163 20.424C113.419 20.68 113.547 20.984 113.547 21.336V43.704C113.547 44.056 113.419 44.36 113.163 44.616C112.907 44.872 112.603 45 112.251 45H103.659ZM127.431 45.48C124.455 45.48 122.055 44.584 120.231 42.792C118.407 41 117.415 38.2 117.255 34.392L117.207 32.472L117.255 30.6C117.383 26.984 118.375 24.248 120.231 22.392C122.119 20.504 124.519 19.56 127.431 19.56C130.023 19.56 132.151 20.312 133.815 21.816V12.216C133.815 11.864 133.943 11.56 134.199 11.304C134.455 11.048 134.759 10.92 135.111 10.92H143.991C144.343 10.92 144.647 11.048 144.903 11.304C145.159 11.56 145.287 11.864 145.287 12.216V43.704C145.287 44.056 145.159 44.36 144.903 44.616C144.647 44.872 144.343 45 143.991 45H135.831C135.479 45 135.175 44.872 134.919 44.616C134.663 44.36 134.535 44.056 134.535 43.704V42.6C132.839 44.52 130.471 45.48 127.431 45.48ZM131.415 36.888C132.247 36.888 132.839 36.664 133.191 36.216C133.543 35.736 133.751 35.032 133.815 34.104C133.879 33.144 133.911 32.552 133.911 32.328C133.911 32.104 133.879 31.512 133.815 30.552C133.751 29.752 133.527 29.16 133.143 28.776C132.791 28.36 132.215 28.152 131.415 28.152C130.583 28.152 129.991 28.376 129.639 28.824C129.319 29.272 129.111 29.976 129.015 30.936C128.983 31.256 128.967 31.784 128.967 32.52C128.967 33.256 128.983 33.784 129.015 34.104C129.111 35.064 129.319 35.768 129.639 36.216C129.991 36.664 130.583 36.888 131.415 36.888ZM150.957 35.304C150.605 35.304 150.301 35.176 150.045 34.92C149.789 34.664 149.661 34.36 149.661 34.008V27.192C149.661 26.84 149.789 26.536 150.045 26.28C150.301 26.024 150.605 25.896 150.957 25.896H166.557C166.909 25.896 167.213 26.024 167.469 26.28C167.725 26.536 167.853 26.84 167.853 27.192V34.008C167.853 34.36 167.725 34.664 167.469 34.92C167.213 35.176 166.909 35.304 166.557 35.304H150.957ZM182.547 45C182.195 45 181.891 44.872 181.635 44.616C181.379 44.36 181.251 44.056 181.251 43.704V24.312L175.875 28.44C175.683 28.6 175.443 28.68 175.155 28.68C174.739 28.68 174.371 28.472 174.051 28.056L169.827 22.584C169.699 22.264 169.635 22.024 169.635 21.864C169.635 21.64 169.683 21.432 169.779 21.24C169.907 21.016 170.067 20.84 170.259 20.712L181.827 11.736C182.147 11.512 182.499 11.4 182.883 11.4H191.955C192.307 11.4 192.611 11.528 192.867 11.784C193.123 12.04 193.251 12.344 193.251 12.696V43.704C193.251 44.056 193.123 44.36 192.867 44.616C192.611 44.872 192.307 45 191.955 45H182.547ZM203.506 45C203.218 45 202.962 44.904 202.738 44.712C202.546 44.488 202.45 44.232 202.45 43.944C202.45 43.72 202.514 43.512 202.642 43.32L208.93 34.92C208.77 34.92 208.642 34.904 208.546 34.872C206.818 34.68 205.058 34.136 203.266 33.24C201.474 32.344 199.97 31.08 198.754 29.448C197.538 27.784 196.93 25.784 196.93 23.448C196.93 21.208 197.506 19.144 198.658 17.256C199.842 15.336 201.57 13.8 203.842 12.648C206.146 11.496 208.898 10.92 212.098 10.92C215.362 10.92 218.162 11.432 220.498 12.456C222.866 13.448 224.658 14.856 225.874 16.68C227.09 18.472 227.698 20.568 227.698 22.968C227.698 24.76 227.298 26.424 226.498 27.96C225.698 29.496 224.466 31.384 222.802 33.624L221.362 35.592L215.026 44.04C214.578 44.68 213.954 45 213.154 45H203.506ZM212.242 26.52C213.202 26.52 213.954 26.248 214.498 25.704C215.042 25.16 215.314 24.392 215.314 23.4C215.314 22.408 215.026 21.64 214.45 21.096C213.906 20.552 213.17 20.28 212.242 20.28C211.314 20.28 210.562 20.552 209.986 21.096C209.442 21.64 209.17 22.408 209.17 23.4C209.17 24.392 209.442 25.16 209.986 25.704C210.53 26.248 211.282 26.52 212.242 26.52Z" fill="#FD4755"/>
<path d="M11.336 42.312L10.4338 43.5104L10.4425 43.5169L11.336 42.312ZM6.776 32.472L5.277 32.5275L5.27742 32.5372L6.776 32.472ZM6.776 23.928L5.27744 23.8609L5.27696 23.8745L6.776 23.928ZM11.432 14.232L12.3299 15.4336L12.3383 15.4273L11.432 14.232ZM30.776 12.216L30.2679 13.6273L30.2739 13.6295L30.776 12.216ZM36.68 16.296L35.5146 17.2404L35.5235 17.2514L35.5326 17.2622L36.68 16.296ZM39.032 23.208H40.532V23.1994L40.5319 23.1908L39.032 23.208ZM38.696 23.976L37.6353 22.9153L37.6353 22.9153L38.696 23.976ZM27.032 23.976L26.0558 25.1149L26.0929 25.1467L26.132 25.176L27.032 23.976ZM26.408 22.872L27.8225 22.3728L27.8195 22.3642L27.8163 22.3556L26.408 22.872ZM25.016 20.856L24.1839 22.1041L24.184 22.1041L25.016 20.856ZM20.216 21.192L21.2476 22.2809L21.2623 22.267L21.2767 22.2527L20.216 21.192ZM19.256 24.168L20.755 24.2235L20.7554 24.2128L20.7556 24.2021L19.256 24.168ZM19.256 32.232L20.7556 32.1979L20.7554 32.1891L20.7551 32.1803L19.256 32.232ZM20.216 35.256L19.1553 36.3167L19.1697 36.331L19.1844 36.3449L20.216 35.256ZM26.408 33.528L27.831 34.0023L27.8395 33.9769L27.847 33.9513L26.408 33.528ZM26.984 32.424L26.084 31.224L26.0449 31.2533L26.0078 31.2851L26.984 32.424ZM38.696 32.472L37.5571 33.4482L37.6322 33.5358L37.7198 33.6109L38.696 32.472ZM39.032 33.192L40.5319 33.2092L40.532 33.2006V33.192H39.032ZM36.68 40.152L35.5244 39.1956L35.5227 39.1977L36.68 40.152ZM30.776 44.184L30.2738 42.7705L30.2679 42.7727L30.776 44.184ZM22.856 43.98C18.2309 43.98 14.7399 42.9688 12.2295 41.1071L10.4425 43.5169C13.6281 45.8792 17.8171 46.98 22.856 46.98V43.98ZM12.2382 41.1136C9.83277 39.3028 8.45222 36.4925 8.27458 32.4068L5.27742 32.5372C5.48378 37.2835 7.14323 41.0332 10.4338 43.5104L12.2382 41.1136ZM8.27497 32.4165C8.24408 31.5825 8.228 30.1985 8.228 28.248H5.228C5.228 30.2015 5.24392 31.6335 5.27703 32.5275L8.27497 32.4165ZM8.228 28.248C8.228 26.2658 8.24407 24.8488 8.27504 23.9815L5.27696 23.8745C5.24393 24.7992 5.228 26.2622 5.228 28.248H8.228ZM8.2745 23.9951C8.45043 20.0659 9.84459 17.2907 12.3299 15.4336L10.5341 13.0304C7.19541 15.5253 5.48557 19.2141 5.2775 23.8609L8.2745 23.9951ZM12.3383 15.4273C14.923 13.4674 18.3847 12.42 22.856 12.42V9.42C17.9193 9.42 13.765 10.5806 10.5257 13.0367L12.3383 15.4273ZM22.856 12.42C25.5849 12.42 28.0505 12.8291 30.2679 13.6273L31.2841 10.8047C28.7015 9.87494 25.8871 9.42 22.856 9.42V12.42ZM30.2739 13.6295C32.4675 14.4088 34.1983 15.616 35.5146 17.2404L37.8454 15.3516C36.1537 13.264 33.9485 11.7512 31.2781 10.8025L30.2739 13.6295ZM35.5326 17.2622C36.8083 18.777 37.5034 20.7277 37.5321 23.2252L40.5319 23.1908C40.4966 20.1203 39.6237 17.463 37.8274 15.3298L35.5326 17.2622ZM37.532 23.208C37.532 23.1516 37.5443 23.0822 37.5738 23.0148C37.6021 22.9501 37.6326 22.918 37.6353 22.9153L39.7567 25.0367C40.2311 24.5622 40.532 23.9355 40.532 23.208H37.532ZM37.6353 22.9153C37.6756 22.8751 37.7368 22.8305 37.8149 22.7993C37.8912 22.7688 37.9509 22.764 37.976 22.764V25.764C38.635 25.764 39.265 25.5284 39.7567 25.0367L37.6353 22.9153ZM37.976 22.764H28.184V25.764H37.976V22.764ZM28.184 22.764C28.0169 22.764 27.92 22.7478 27.8758 22.7368C27.8332 22.7261 27.867 22.7273 27.932 22.776L26.132 25.176C26.7621 25.6486 27.5278 25.764 28.184 25.764V22.764ZM28.0082 22.8371C28.0724 22.8921 28.0661 22.9103 28.0138 22.8179C27.9653 22.732 27.8991 22.5897 27.8225 22.3728L24.9935 23.3712C25.2041 23.9678 25.5186 24.6544 26.0558 25.1149L28.0082 22.8371ZM27.8163 22.3556C27.4046 21.2327 26.7882 20.2347 25.8481 19.6079L24.184 22.1041C24.3958 22.2453 24.7074 22.5913 24.9997 23.3884L27.8163 22.3556ZM25.8481 19.6079C24.9625 19.0176 23.9138 18.78 22.808 18.78V21.78C23.4942 21.78 23.9175 21.9264 24.1839 22.1041L25.8481 19.6079ZM22.808 18.78C21.4156 18.78 20.1224 19.1643 19.1553 20.1313L21.2767 22.2527C21.5256 22.0037 21.9604 21.78 22.808 21.78V18.78ZM19.1844 20.1031C18.1413 21.0913 17.7916 22.583 17.7564 24.1339L20.7556 24.2021C20.7844 22.937 21.0747 22.4447 21.2476 22.2809L19.1844 20.1031ZM17.757 24.1125C17.7239 25.0056 17.708 26.3567 17.708 28.152H20.708C20.708 26.3633 20.7241 25.0584 20.755 24.2235L17.757 24.1125ZM17.708 28.152C17.708 29.9486 17.724 31.3293 17.7569 32.2837L20.7551 32.1803C20.724 31.2787 20.708 29.9394 20.708 28.152H17.708ZM17.7564 32.2661C17.7919 33.827 18.1451 35.3064 19.1553 36.3167L21.2767 34.1953C21.0709 33.9896 20.7841 33.453 20.7556 32.1979L17.7564 32.2661ZM19.1844 36.3449C20.1543 37.2638 21.4367 37.62 22.808 37.62V34.62C21.9393 34.62 21.4937 34.4002 21.2476 34.1671L19.1844 36.3449ZM22.808 37.62C23.96 37.62 25.0427 37.3443 25.9525 36.6893C26.8624 36.0341 27.4668 35.0949 27.831 34.0023L24.985 33.0537C24.7732 33.6891 24.4896 34.0459 24.1995 34.2547C23.9093 34.4637 23.48 34.62 22.808 34.62V37.62ZM27.847 33.9513C27.9088 33.7414 27.9639 33.6106 28.0019 33.5378C28.0427 33.4595 28.0395 33.4949 27.9602 33.5629L26.0078 31.2851C25.4394 31.7724 25.1474 32.4981 24.969 33.1047L27.847 33.9513ZM27.884 33.624C27.8087 33.6805 27.7706 33.6799 27.8261 33.6666C27.8815 33.6533 27.9945 33.636 28.184 33.636V30.636C27.5204 30.636 26.7261 30.7424 26.084 31.224L27.884 33.624ZM28.184 33.636H37.976V30.636H28.184V33.636ZM37.976 33.636C37.9202 33.636 37.8332 33.6238 37.7377 33.5793C37.6431 33.5352 37.5842 33.4798 37.5571 33.4482L39.8349 31.4958C39.3659 30.9487 38.714 30.636 37.976 30.636V33.636ZM37.7198 33.6109C37.6882 33.5838 37.6329 33.5249 37.5887 33.4303C37.5442 33.3348 37.532 33.2478 37.532 33.192H40.532C40.532 32.454 40.2193 31.8021 39.6722 31.3331L37.7198 33.6109ZM37.5321 33.1748C37.5034 35.6717 36.8083 37.6443 35.5244 39.1956L37.8356 41.1084C39.6237 38.9477 40.4966 36.2803 40.5319 33.2092L37.5321 33.1748ZM35.5227 39.1977C34.2071 40.7932 32.4742 41.9889 30.2739 42.7705L31.2781 45.5975C33.9418 44.6511 36.1449 43.1588 37.8373 41.1063L35.5227 39.1977ZM30.2679 42.7727C28.0505 43.5709 25.5849 43.98 22.856 43.98V46.98C25.8871 46.98 28.7015 46.5251 31.2841 45.5953L30.2679 42.7727ZM41.6911 34.776L40.1944 34.8758L40.1945 34.8767L41.6911 34.776ZM41.6911 30.264L43.1878 30.3638L43.188 30.3601L41.6911 30.264ZM65.5471 22.296L64.6471 23.496L64.6471 23.496L65.5471 22.296ZM69.5311 30.264L68.0342 30.3601L68.0344 30.3638L69.5311 30.264ZM69.5311 34.776L71.0277 34.8767L71.0278 34.8758L69.5311 34.776ZM57.2911 37.128L58.5935 37.8722L58.6044 37.8532L58.6147 37.8339L57.2911 37.128ZM57.7711 34.536L56.2786 34.3867L56.275 34.4229L56.2731 34.4592L57.7711 34.536ZM57.7711 30.504L56.2758 30.6221L56.277 30.6377L56.2786 30.6533L57.7711 30.504ZM57.2431 27.96L58.5667 27.2541L58.5667 27.2541L57.2431 27.96ZM53.9791 27.96L52.6556 27.2541L52.6556 27.2541L53.9791 27.96ZM53.4511 30.504L51.9558 30.3859L51.9525 30.4271L51.9516 30.4683L53.4511 30.504ZM53.4031 32.52L51.9036 32.4843L51.9027 32.52L51.9036 32.5557L53.4031 32.52ZM53.4511 34.536L51.9516 34.5717L51.952 34.5923L51.9531 34.6128L53.4511 34.536ZM53.9311 37.128L52.6076 37.8339L52.6179 37.8532L52.6288 37.8722L53.9311 37.128ZM55.6111 43.98C51.3833 43.98 48.4005 43.1183 46.4455 41.6149C44.5412 40.1506 43.4058 37.9173 43.1877 34.6753L40.1945 34.8767C40.4564 38.7707 41.881 41.8894 44.6168 43.9931C47.3017 46.0577 51.039 46.98 55.6111 46.98V43.98ZM43.1878 34.6762C43.1593 34.2491 43.1431 33.5391 43.1431 32.52H40.1431C40.1431 33.5489 40.1589 34.3429 40.1944 34.8758L43.1878 34.6762ZM43.1431 32.52C43.1431 31.5009 43.1593 30.7909 43.1878 30.3638L40.1944 30.1642C40.1589 30.6971 40.1431 31.4911 40.1431 32.52H43.1431ZM43.188 30.3601C43.3886 27.2367 44.5484 25.0161 46.5751 23.496L44.7751 21.096C41.9379 23.2239 40.4416 26.3153 40.1942 30.1679L43.188 30.3601ZM46.5751 23.496C48.6652 21.9285 51.623 21.06 55.6111 21.06V18.06C51.2152 18.06 47.5491 19.0155 44.7751 21.096L46.5751 23.496ZM55.6111 21.06C59.5992 21.06 62.5571 21.9285 64.6471 23.496L66.4471 21.096C63.6732 19.0155 60.007 18.06 55.6111 18.06V21.06ZM64.6471 23.496C66.6739 25.0161 67.8336 27.2367 68.0342 30.3601L71.028 30.1679C70.7806 26.3153 69.2844 23.2239 66.4471 21.096L64.6471 23.496ZM68.0344 30.3638C68.0976 31.3116 68.1271 32.0252 68.1271 32.52H71.1271C71.1271 31.9268 71.0926 31.1364 71.0278 30.1642L68.0344 30.3638ZM68.1271 32.52C68.1271 33.0148 68.0976 33.7284 68.0344 34.6762L71.0278 34.8758C71.0926 33.9036 71.1271 33.1132 71.1271 32.52H68.1271ZM68.0345 34.6753C67.8164 37.9173 66.681 40.1506 64.7768 41.6149C62.8217 43.1183 59.839 43.98 55.6111 43.98V46.98C60.1833 46.98 63.9205 46.0577 66.6055 43.9931C69.3412 41.8894 70.7658 38.7707 71.0277 34.8767L68.0345 34.6753ZM55.6111 39.3C56.6366 39.3 57.9251 39.0418 58.5935 37.8722L55.9888 36.3838C56.0172 36.334 56.0537 36.2928 56.0886 36.2641C56.1213 36.2371 56.1385 36.2327 56.122 36.2393C56.0782 36.2568 55.9282 36.3 55.6111 36.3V39.3ZM58.6147 37.8339C59.042 37.0326 59.2048 35.8669 59.2692 34.6128L56.2731 34.4592C56.2094 35.7011 56.0522 36.2634 55.9676 36.4221L58.6147 37.8339ZM59.2637 34.6853C59.3045 34.2773 59.3191 33.5281 59.3191 32.52H56.3191C56.3191 33.5599 56.3018 34.1547 56.2786 34.3867L59.2637 34.6853ZM59.3191 32.52C59.3191 31.5119 59.3045 30.7627 59.2637 30.3547L56.2786 30.6533C56.3018 30.8853 56.3191 31.4801 56.3191 32.52H59.3191ZM59.2665 30.3859C59.1695 29.1575 58.9817 28.0323 58.5667 27.2541L55.9196 28.6659C56.0166 28.8477 56.1808 29.4185 56.2758 30.6221L59.2665 30.3859ZM58.5667 27.2541C57.9275 26.0556 56.6762 25.74 55.6111 25.74V28.74C55.8962 28.74 56.0165 28.7831 56.0377 28.7924C56.0433 28.7949 56.0236 28.7868 55.9937 28.7599C55.9626 28.732 55.9368 28.6981 55.9196 28.6659L58.5667 27.2541ZM55.6111 25.74C54.5461 25.74 53.2948 26.0556 52.6556 27.2541L55.3027 28.6659C55.2855 28.6981 55.2597 28.732 55.2286 28.7599C55.1987 28.7868 55.1789 28.7949 55.1846 28.7924C55.2057 28.7831 55.326 28.74 55.6111 28.74V25.74ZM52.6556 27.2541C52.2406 28.0323 52.0528 29.1575 51.9558 30.3859L54.9465 30.6221C55.0415 29.4185 55.2057 28.8477 55.3027 28.6659L52.6556 27.2541ZM51.9516 30.4683L51.9036 32.4843L54.9027 32.5557L54.9507 30.5397L51.9516 30.4683ZM51.9036 32.5557L51.9516 34.5717L54.9507 34.5003L54.9027 32.4843L51.9036 32.5557ZM51.9531 34.6128C52.0174 35.8669 52.1802 37.0326 52.6076 37.8339L55.2547 36.4221C55.17 36.2634 55.0128 35.7011 54.9492 34.4592L51.9531 34.6128ZM52.6288 37.8722C53.2971 39.0418 54.5857 39.3 55.6111 39.3V36.3C55.2941 36.3 55.1441 36.2568 55.1002 36.2393C55.0838 36.2327 55.1009 36.2371 55.1337 36.2641C55.1686 36.2928 55.2051 36.334 55.2335 36.3838L52.6288 37.8722ZM80.2888 44.712L79.2281 45.7727L79.2688 45.8134L79.3126 45.8509L80.2888 44.712ZM79.6648 43.8L78.2787 44.3735L78.2992 44.423L78.3231 44.4708L79.6648 43.8ZM70.4488 21.528L69.0257 22.0023L69.0425 22.0526L69.0627 22.1015L70.4488 21.528ZM70.7368 20.376L71.7974 21.4367L71.7974 21.4367L70.7368 20.376ZM81.2488 21.192L82.6675 20.7049L82.6606 20.685L82.6532 20.6653L81.2488 21.192ZM85.0888 32.376L83.67 32.8631L85.0888 36.9951L86.5075 32.8631L85.0888 32.376ZM88.9288 21.192L87.5243 20.6653L87.5169 20.685L87.51 20.7049L88.9288 21.192ZM99.4408 20.376L98.3801 21.4367L98.3801 21.4367L99.4408 20.376ZM99.7288 21.528L101.115 22.1015L101.135 22.0526L101.152 22.0024L99.7288 21.528ZM90.5128 43.8L91.8544 44.4708L91.8783 44.423L91.8988 44.3735L90.5128 43.8ZM89.8888 44.712L90.8649 45.8509L90.9087 45.8134L90.9494 45.7727L89.8888 44.712ZM81.2488 43.5C81.202 43.5 81.1693 43.4973 81.1488 43.4946C81.1283 43.4919 81.1223 43.4896 81.1278 43.4913C81.1335 43.493 81.1512 43.4989 81.1766 43.5123C81.2024 43.526 81.2331 43.5458 81.2649 43.5731L79.3126 45.8509C79.9015 46.3557 80.62 46.5 81.2488 46.5V43.5ZM81.3494 43.6513C81.2718 43.5738 81.1501 43.4167 81.0064 43.1292L78.3231 44.4708C78.5634 44.9513 78.8577 45.4022 79.2281 45.7727L81.3494 43.6513ZM81.0508 43.2265L71.8348 20.9545L69.0627 22.1015L78.2787 44.3735L81.0508 43.2265ZM71.8718 21.0537C71.9022 21.145 71.9008 21.1995 71.9008 21.192H68.9008C68.9008 21.4405 68.9313 21.719 69.0257 22.0023L71.8718 21.0537ZM71.9008 21.192C71.9008 21.2106 71.8967 21.2586 71.8718 21.3191C71.8467 21.38 71.8146 21.4195 71.7974 21.4367L69.6761 19.3153C69.1676 19.8238 68.9008 20.4787 68.9008 21.192H71.9008ZM71.7974 21.4367C71.7803 21.4538 71.7407 21.486 71.6799 21.511C71.6193 21.5359 71.5713 21.54 71.5527 21.54V18.54C70.8395 18.54 70.1846 18.8068 69.6761 19.3153L71.7974 21.4367ZM71.5527 21.54H79.6648V18.54H71.5527V21.54ZM79.6648 21.54C79.7318 21.54 79.7633 21.5483 79.7696 21.5502C79.7737 21.5514 79.7655 21.5491 79.7545 21.5411C79.7267 21.5209 79.777 21.5393 79.8443 21.7187L82.6532 20.6653C82.4325 20.0767 82.0748 19.5191 81.519 19.1149C80.9556 18.7052 80.3081 18.54 79.6648 18.54V21.54ZM79.83 21.6791L83.67 32.8631L86.5075 31.8889L82.6675 20.7049L79.83 21.6791ZM86.5075 32.8631L90.3475 21.6791L87.51 20.7049L83.67 31.8889L86.5075 32.8631ZM90.3332 21.7187C90.4005 21.5393 90.4508 21.5209 90.423 21.5411C90.412 21.5491 90.4038 21.5514 90.4079 21.5502C90.4142 21.5483 90.4457 21.54 90.5128 21.54V18.54C89.8694 18.54 89.2219 18.7052 88.6585 19.1149C88.1027 19.5191 87.745 20.0767 87.5243 20.6653L90.3332 21.7187ZM90.5128 21.54H98.6248V18.54H90.5128V21.54ZM98.6248 21.54C98.6062 21.54 98.5582 21.5359 98.4976 21.511C98.4368 21.486 98.3972 21.4538 98.3801 21.4367L100.501 19.3153C99.9929 18.8068 99.338 18.54 98.6248 18.54V21.54ZM98.3801 21.4367C98.3629 21.4195 98.3308 21.38 98.3057 21.3191C98.2808 21.2586 98.2768 21.2106 98.2768 21.192H101.277C101.277 20.4787 101.01 19.8238 100.501 19.3153L98.3801 21.4367ZM98.2768 21.192C98.2768 21.1995 98.2753 21.1449 98.3057 21.0536L101.152 22.0024C101.246 21.7191 101.277 21.4405 101.277 21.192H98.2768ZM98.3427 20.9545L89.1267 43.2265L91.8988 44.3735L101.115 22.1015L98.3427 20.9545ZM89.1711 43.1292C89.0274 43.4167 88.9057 43.5738 88.8281 43.6513L90.9494 45.7727C91.3198 45.4022 91.6141 44.9513 91.8544 44.4708L89.1711 43.1292ZM88.9126 43.5731C88.9444 43.5458 88.9751 43.526 89.0009 43.5123C89.0263 43.4989 89.044 43.493 89.0497 43.4913C89.0552 43.4896 89.0492 43.4919 89.0287 43.4946C89.0082 43.4973 88.9755 43.5 88.9288 43.5V46.5C89.5575 46.5 90.276 46.3557 90.8649 45.8509L88.9126 43.5731ZM88.9288 43.5H81.2488V46.5H88.9288V43.5ZM102.987 17.016L101.926 18.0767L101.926 18.0767L102.987 17.016ZM102.987 9.384L104.048 10.4447L104.048 10.4447L102.987 9.384ZM112.923 9.384L113.984 8.32334L113.984 8.32334L112.923 9.384ZM112.923 17.016L113.984 18.0767L113.984 18.0767L112.923 17.016ZM113.163 20.424L112.102 21.4847L112.102 21.4847L113.163 20.424ZM113.163 44.616L112.102 43.5553L112.102 43.5553L113.163 44.616ZM103.899 15.9C103.909 15.9 103.945 15.9029 103.989 15.9215C104.033 15.9399 104.052 15.9596 104.048 15.9553L101.926 18.0767C102.455 18.605 103.137 18.9 103.899 18.9V15.9ZM104.048 15.9553C104.044 15.9511 104.063 15.9704 104.082 16.0139C104.1 16.0583 104.103 16.0937 104.103 16.104H101.103C101.103 16.8663 101.398 17.5483 101.926 18.0767L104.048 15.9553ZM104.103 16.104V10.296H101.103V16.104H104.103ZM104.103 10.296C104.103 10.3063 104.1 10.3417 104.082 10.3861C104.063 10.4296 104.044 10.4489 104.048 10.4447L101.926 8.32334C101.398 8.85167 101.103 9.53366 101.103 10.296H104.103ZM104.048 10.4447C104.052 10.4404 104.033 10.4601 103.989 10.4785C103.945 10.4971 103.909 10.5 103.899 10.5V7.5C103.137 7.5 102.455 7.79501 101.926 8.32334L104.048 10.4447ZM103.899 10.5H112.011V7.5H103.899V10.5ZM112.011 10.5C112.001 10.5 111.965 10.4971 111.921 10.4785C111.877 10.4601 111.858 10.4404 111.862 10.4447L113.984 8.32334C113.455 7.79501 112.773 7.5 112.011 7.5V10.5ZM111.862 10.4447C111.867 10.4489 111.847 10.4296 111.829 10.3861C111.81 10.3417 111.807 10.3063 111.807 10.296H114.807C114.807 9.53366 114.512 8.85167 113.984 8.32334L111.862 10.4447ZM111.807 10.296V16.104H114.807V10.296H111.807ZM111.807 16.104C111.807 16.0937 111.81 16.0583 111.829 16.0139C111.847 15.9704 111.867 15.9511 111.862 15.9553L113.984 18.0767C114.512 17.5483 114.807 16.8663 114.807 16.104H111.807ZM111.862 15.9553C111.858 15.9596 111.877 15.9399 111.921 15.9215C111.965 15.9029 112.001 15.9 112.011 15.9V18.9C112.773 18.9 113.455 18.605 113.984 18.0767L111.862 15.9553ZM112.011 15.9H103.899V18.9H112.011V15.9ZM103.659 43.5C103.669 43.5 103.705 43.5029 103.749 43.5215C103.793 43.5399 103.812 43.5596 103.808 43.5553L101.686 45.6767C102.215 46.205 102.897 46.5 103.659 46.5V43.5ZM103.808 43.5553C103.804 43.5511 103.823 43.5704 103.842 43.6139C103.86 43.6583 103.863 43.6937 103.863 43.704H100.863C100.863 44.4663 101.158 45.1483 101.686 45.6767L103.808 43.5553ZM103.863 43.704V21.336H100.863V43.704H103.863ZM103.863 21.336C103.863 21.3463 103.86 21.3817 103.842 21.4261C103.823 21.4696 103.804 21.4889 103.808 21.4847L101.686 19.3633C101.158 19.8917 100.863 20.5737 100.863 21.336H103.863ZM103.808 21.4847C103.812 21.4804 103.793 21.5001 103.749 21.5185C103.705 21.5371 103.669 21.54 103.659 21.54V18.54C102.897 18.54 102.215 18.835 101.686 19.3633L103.808 21.4847ZM103.659 21.54H112.251V18.54H103.659V21.54ZM112.251 21.54C112.241 21.54 112.205 21.5371 112.161 21.5185C112.117 21.5001 112.098 21.4804 112.102 21.4847L114.224 19.3633C113.695 18.835 113.013 18.54 112.251 18.54V21.54ZM112.102 21.4847C112.107 21.4889 112.087 21.4696 112.069 21.4261C112.05 21.3817 112.047 21.3463 112.047 21.336H115.047C115.047 20.5737 114.752 19.8917 114.224 19.3633L112.102 21.4847ZM112.047 21.336V43.704H115.047V21.336H112.047ZM112.047 43.704C112.047 43.6937 112.05 43.6583 112.069 43.6139C112.087 43.5704 112.107 43.5511 112.102 43.5553L114.224 45.6767C114.752 45.1483 115.047 44.4663 115.047 43.704H112.047ZM112.102 43.5553C112.098 43.5596 112.117 43.5399 112.161 43.5215C112.205 43.5029 112.241 43.5 112.251 43.5V46.5C113.013 46.5 113.695 46.205 114.224 45.6767L112.102 43.5553ZM112.251 43.5H103.659V46.5H112.251V43.5ZM120.231 42.792L121.282 41.722L121.282 41.722L120.231 42.792ZM117.255 34.392L115.755 34.4295L115.756 34.4422L115.756 34.455L117.255 34.392ZM117.207 32.472L115.707 32.4336L115.706 32.4715L115.707 32.5095L117.207 32.472ZM117.255 30.6L115.756 30.5469L115.755 30.5542L115.755 30.5616L117.255 30.6ZM120.231 22.392L121.291 23.4527L121.291 23.4527L120.231 22.392ZM133.815 21.816L132.809 22.9288L135.315 25.1937V21.816H133.815ZM134.199 11.304L135.259 12.3647L135.259 12.3647L134.199 11.304ZM134.919 44.616L133.858 45.6767L133.858 45.6767L134.919 44.616ZM134.535 42.6H136.035V38.6361L133.411 41.6069L134.535 42.6ZM133.191 36.216L134.37 37.1427L134.386 37.1231L134.4 37.103L133.191 36.216ZM133.815 34.104L135.311 34.2072L135.311 34.2038L133.815 34.104ZM133.815 30.552L135.311 30.4522L135.311 30.4423L135.31 30.4324L133.815 30.552ZM133.143 28.776L131.998 29.7449L132.038 29.7925L132.082 29.8367L133.143 28.776ZM129.639 28.824L128.459 27.8973L128.438 27.9242L128.418 27.9521L129.639 28.824ZM129.015 30.936L127.522 30.7867L127.522 30.7867L129.015 30.936ZM129.015 34.104L127.522 34.2533L127.522 34.2533L129.015 34.104ZM129.639 36.216L128.418 37.0879L128.438 37.1158L128.459 37.1427L129.639 36.216ZM127.431 43.98C124.779 43.98 122.78 43.1933 121.282 41.722L119.18 43.862C121.33 45.9747 124.131 46.98 127.431 46.98V43.98ZM121.282 41.722C119.837 40.3021 118.905 37.9397 118.753 34.329L115.756 34.455C115.924 38.4603 116.977 41.6979 119.18 43.862L121.282 41.722ZM118.754 34.3545L118.706 32.4345L115.707 32.5095L115.755 34.4295L118.754 34.3545ZM118.706 32.5104L118.754 30.6384L115.755 30.5616L115.707 32.4336L118.706 32.5104ZM118.754 30.6531C118.874 27.2713 119.791 24.9529 121.291 23.4527L119.17 21.3313C116.958 23.5431 115.892 26.6967 115.756 30.5469L118.754 30.6531ZM121.291 23.4527C122.871 21.8728 124.877 21.06 127.431 21.06V18.06C124.161 18.06 121.366 19.1351 119.17 21.3313L121.291 23.4527ZM127.431 21.06C129.713 21.06 131.463 21.7125 132.809 22.9288L134.821 20.7032C132.838 18.9115 130.333 18.06 127.431 18.06V21.06ZM135.315 21.816V12.216H132.315V21.816H135.315ZM135.315 12.216C135.315 12.2263 135.312 12.2617 135.293 12.3061C135.275 12.3496 135.255 12.3689 135.259 12.3647L133.138 10.2433C132.61 10.7717 132.315 11.4537 132.315 12.216H135.315ZM135.259 12.3647C135.264 12.3604 135.244 12.3801 135.201 12.3985C135.156 12.4171 135.121 12.42 135.111 12.42V9.42C134.348 9.42 133.666 9.71501 133.138 10.2433L135.259 12.3647ZM135.111 12.42H143.991V9.42H135.111V12.42ZM143.991 12.42C143.98 12.42 143.945 12.4171 143.901 12.3985C143.857 12.3801 143.838 12.3604 143.842 12.3647L145.963 10.2433C145.435 9.71501 144.753 9.42 143.991 9.42V12.42ZM143.842 12.3647C143.846 12.3689 143.827 12.3496 143.808 12.3061C143.79 12.2617 143.787 12.2263 143.787 12.216H146.787C146.787 11.4537 146.492 10.7717 145.963 10.2433L143.842 12.3647ZM143.787 12.216V43.704H146.787V12.216H143.787ZM143.787 43.704C143.787 43.6937 143.79 43.6583 143.808 43.6139C143.827 43.5704 143.846 43.5511 143.842 43.5553L145.963 45.6767C146.492 45.1483 146.787 44.4663 146.787 43.704H143.787ZM143.842 43.5553C143.838 43.5596 143.857 43.5399 143.901 43.5215C143.945 43.5029 143.98 43.5 143.991 43.5V46.5C144.753 46.5 145.435 46.205 145.963 45.6767L143.842 43.5553ZM143.991 43.5H135.831V46.5H143.991V43.5ZM135.831 43.5C135.841 43.5 135.876 43.5029 135.921 43.5215C135.964 43.5399 135.984 43.5596 135.979 43.5553L133.858 45.6767C134.386 46.205 135.068 46.5 135.831 46.5V43.5ZM135.979 43.5553C135.975 43.5511 135.995 43.5704 136.013 43.6139C136.032 43.6583 136.035 43.6937 136.035 43.704H133.035C133.035 44.4663 133.33 45.1483 133.858 45.6767L135.979 43.5553ZM136.035 43.704V42.6H133.035V43.704H136.035ZM133.411 41.6069C132.053 43.1441 130.129 43.98 127.431 43.98V46.98C130.813 46.98 133.625 45.8959 135.659 43.5931L133.411 41.6069ZM131.415 38.388C132.487 38.388 133.621 38.0962 134.37 37.1427L132.011 35.2893C132.022 35.2752 132.022 35.2907 131.952 35.3171C131.87 35.3482 131.703 35.388 131.415 35.388V38.388ZM134.4 37.103C134.99 36.2993 135.238 35.272 135.311 34.2072L132.318 34.0008C132.264 34.792 132.096 35.1727 131.981 35.329L134.4 37.103ZM135.311 34.2038C135.374 33.2648 135.411 32.6138 135.411 32.328H132.411C132.411 32.4902 132.383 33.0232 132.318 34.0042L135.311 34.2038ZM135.411 32.328C135.411 32.0422 135.374 31.3912 135.311 30.4522L132.318 30.6518C132.383 31.6328 132.411 32.1658 132.411 32.328H135.411ZM135.31 30.4324C135.231 29.442 134.936 28.4479 134.203 27.7153L132.082 29.8367C132.118 29.8721 132.271 30.062 132.32 30.6716L135.31 30.4324ZM134.288 27.8071C133.538 26.9208 132.445 26.652 131.415 26.652V29.652C131.691 29.652 131.854 29.6888 131.937 29.7188C132.01 29.7449 132.011 29.7612 131.998 29.7449L134.288 27.8071ZM131.415 26.652C130.343 26.652 129.208 26.9438 128.459 27.8973L130.818 29.7507C130.807 29.7648 130.808 29.7493 130.878 29.7229C130.96 29.6918 131.126 29.652 131.415 29.652V26.652ZM128.418 27.9521C127.871 28.7188 127.627 29.7362 127.522 30.7867L130.507 31.0853C130.594 30.2158 130.767 29.8252 130.859 29.6959L128.418 27.9521ZM127.522 30.7867C127.482 31.1876 127.467 31.7809 127.467 32.52H130.467C130.467 31.7871 130.483 31.3244 130.507 31.0853L127.522 30.7867ZM127.467 32.52C127.467 33.2591 127.482 33.8524 127.522 34.2533L130.507 33.9547C130.483 33.7156 130.467 33.2529 130.467 32.52H127.467ZM127.522 34.2533C127.627 35.3038 127.871 36.3212 128.418 37.0879L130.859 35.3441C130.767 35.2148 130.594 34.8242 130.507 33.9547L127.522 34.2533ZM128.459 37.1427C129.208 38.0962 130.343 38.388 131.415 38.388V35.388C131.126 35.388 130.96 35.3482 130.878 35.3171C130.808 35.2907 130.807 35.2752 130.818 35.2893L128.459 37.1427ZM150.045 34.92L148.984 35.9807L148.984 35.9807L150.045 34.92ZM150.045 26.28L151.106 27.3407L151.106 27.3407L150.045 26.28ZM167.469 34.92L168.53 35.9807L168.53 35.9807L167.469 34.92ZM150.957 33.804C150.967 33.804 151.003 33.8069 151.047 33.8255C151.091 33.8439 151.11 33.8636 151.106 33.8593L148.984 35.9807C149.513 36.509 150.195 36.804 150.957 36.804V33.804ZM151.106 33.8593C151.102 33.8551 151.121 33.8744 151.14 33.9179C151.158 33.9623 151.161 33.9977 151.161 34.008H148.161C148.161 34.7703 148.456 35.4523 148.984 35.9807L151.106 33.8593ZM151.161 34.008V27.192H148.161V34.008H151.161ZM151.161 27.192C151.161 27.2023 151.158 27.2377 151.14 27.2821C151.121 27.3256 151.102 27.3449 151.106 27.3407L148.984 25.2193C148.456 25.7477 148.161 26.4297 148.161 27.192H151.161ZM151.106 27.3407C151.11 27.3364 151.091 27.3561 151.047 27.3745C151.003 27.3931 150.967 27.396 150.957 27.396V24.396C150.195 24.396 149.513 24.691 148.984 25.2193L151.106 27.3407ZM150.957 27.396H166.557V24.396H150.957V27.396ZM166.557 27.396C166.547 27.396 166.511 27.3931 166.467 27.3745C166.423 27.3561 166.404 27.3364 166.408 27.3407L168.53 25.2193C168.001 24.691 167.319 24.396 166.557 24.396V27.396ZM166.408 27.3407C166.413 27.3449 166.393 27.3256 166.375 27.2821C166.356 27.2377 166.353 27.2023 166.353 27.192H169.353C169.353 26.4297 169.058 25.7477 168.53 25.2193L166.408 27.3407ZM166.353 27.192V34.008H169.353V27.192H166.353ZM166.353 34.008C166.353 33.9977 166.356 33.9623 166.375 33.9179C166.393 33.8744 166.413 33.8551 166.408 33.8593L168.53 35.9807C169.058 35.4523 169.353 34.7703 169.353 34.008H166.353ZM166.408 33.8593C166.404 33.8636 166.423 33.8439 166.467 33.8255C166.511 33.8069 166.547 33.804 166.557 33.804V36.804C167.319 36.804 168.001 36.509 168.53 35.9807L166.408 33.8593ZM166.557 33.804H150.957V36.804H166.557V33.804ZM181.635 44.616L180.574 45.6767L180.574 45.6767L181.635 44.616ZM181.251 24.312H182.751V21.269L180.338 23.1223L181.251 24.312ZM175.875 28.44L174.962 27.2503L174.938 27.2685L174.915 27.2877L175.875 28.44ZM174.051 28.056L175.24 27.1414L175.239 27.1394L174.051 28.056ZM169.827 22.584L168.434 23.1411L168.512 23.3351L168.64 23.5006L169.827 22.584ZM169.779 21.24L168.477 20.4958L168.456 20.5319L168.437 20.5692L169.779 21.24ZM170.259 20.712L171.091 21.9601L171.136 21.9302L171.179 21.8971L170.259 20.712ZM181.827 11.736L180.967 10.5072L180.937 10.5283L180.908 10.5509L181.827 11.736ZM182.547 43.5C182.557 43.5 182.593 43.5029 182.637 43.5215C182.681 43.5399 182.7 43.5596 182.696 43.5553L180.574 45.6767C181.103 46.205 181.785 46.5 182.547 46.5V43.5ZM182.696 43.5553C182.692 43.5511 182.711 43.5704 182.73 43.6139C182.748 43.6583 182.751 43.6937 182.751 43.704H179.751C179.751 44.4663 180.046 45.1483 180.574 45.6767L182.696 43.5553ZM182.751 43.704V24.312H179.751V43.704H182.751ZM180.338 23.1223L174.962 27.2503L176.789 29.6297L182.165 25.5017L180.338 23.1223ZM174.915 27.2877C174.964 27.2464 175.022 27.2154 175.077 27.197C175.129 27.1795 175.16 27.18 175.155 27.18V30.18C175.738 30.18 176.333 30.0106 176.835 29.5923L174.915 27.2877ZM175.155 27.18C175.178 27.18 175.206 27.183 175.237 27.1912C175.267 27.1993 175.291 27.21 175.305 27.2182C175.333 27.2338 175.306 27.2274 175.24 27.1414L172.862 28.9706C173.384 29.6494 174.154 30.18 175.155 30.18V27.18ZM175.239 27.1394L171.015 21.6674L168.64 23.5006L172.864 28.9726L175.239 27.1394ZM171.22 22.0269C171.17 21.903 171.144 21.8222 171.132 21.7775C171.127 21.7562 171.127 21.7519 171.128 21.762C171.13 21.7708 171.135 21.807 171.135 21.864H168.135C168.135 22.3318 168.298 22.8011 168.434 23.1411L171.22 22.0269ZM171.135 21.864C171.135 21.8599 171.135 21.8654 171.133 21.8773C171.13 21.8895 171.125 21.9014 171.121 21.9108L168.437 20.5692C168.233 20.9786 168.135 21.4176 168.135 21.864H171.135ZM171.081 21.9842C171.096 21.9593 171.105 21.9495 171.105 21.949C171.105 21.9486 171.104 21.9499 171.102 21.9522C171.099 21.9546 171.095 21.9573 171.091 21.9601L169.427 19.4639C169.019 19.7357 168.707 20.0937 168.477 20.4958L171.081 21.9842ZM171.179 21.8971L182.747 12.9211L180.908 10.5509L169.34 19.5269L171.179 21.8971ZM182.687 12.9648C182.76 12.9141 182.813 12.9 182.883 12.9V9.9C182.186 9.9 181.534 10.1099 180.967 10.5072L182.687 12.9648ZM182.883 12.9H191.955V9.9H182.883V12.9ZM191.955 12.9C191.945 12.9 191.909 12.8971 191.865 12.8785C191.821 12.8601 191.802 12.8404 191.806 12.8447L193.928 10.7233C193.399 10.195 192.717 9.9 191.955 9.9V12.9ZM191.806 12.8447C191.811 12.8489 191.791 12.8296 191.773 12.7861C191.754 12.7417 191.751 12.7063 191.751 12.696H194.751C194.751 11.9337 194.456 11.2517 193.928 10.7233L191.806 12.8447ZM191.751 12.696V43.704H194.751V12.696H191.751ZM191.751 43.704C191.751 43.6937 191.754 43.6583 191.773 43.6139C191.791 43.5704 191.811 43.5511 191.806 43.5553L193.928 45.6767C194.456 45.1483 194.751 44.4663 194.751 43.704H191.751ZM191.806 43.5553C191.802 43.5596 191.821 43.5399 191.865 43.5215C191.909 43.5029 191.945 43.5 191.955 43.5V46.5C192.717 46.5 193.399 46.205 193.928 45.6767L191.806 43.5553ZM191.955 43.5H182.547V46.5H191.955V43.5ZM202.738 44.712L201.599 45.6882L201.674 45.7758L201.762 45.8509L202.738 44.712ZM202.642 43.32L201.441 42.4211L201.417 42.4539L201.394 42.488L202.642 43.32ZM208.93 34.92L210.131 35.8189L211.926 33.42H208.93V34.92ZM208.546 34.872L209.02 33.449L208.869 33.3987L208.712 33.3812L208.546 34.872ZM203.266 33.24L203.937 31.8984L203.937 31.8984L203.266 33.24ZM198.754 29.448L197.543 30.3331L197.551 30.3442L198.754 29.448ZM198.658 17.256L197.381 16.4687L197.377 16.4747L198.658 17.256ZM203.842 12.648L203.171 11.3063L203.164 11.3101L203.842 12.648ZM220.498 12.456L219.896 13.8298L219.907 13.8347L219.918 13.8395L220.498 12.456ZM225.874 16.68L224.626 17.5121L224.633 17.5223L225.874 16.68ZM226.498 27.96L225.168 27.2671L225.168 27.2671L226.498 27.96ZM222.802 33.624L221.598 32.7295L221.591 32.7382L222.802 33.624ZM221.362 35.592L222.562 36.492L222.567 36.4849L222.572 36.4778L221.362 35.592ZM215.026 44.04L213.826 43.14L213.811 43.1597L213.797 43.1798L215.026 44.04ZM214.498 25.704L215.559 26.7647L215.559 26.7647L214.498 25.704ZM214.45 21.096L213.389 22.1567L213.404 22.1718L213.42 22.1865L214.45 21.096ZM209.986 21.096L208.956 20.0055L208.94 20.0202L208.925 20.0353L209.986 21.096ZM209.986 25.704L208.925 26.7647L208.925 26.7647L209.986 25.704ZM203.506 43.5C203.532 43.5 203.575 43.505 203.625 43.5235C203.673 43.5418 203.703 43.564 203.714 43.5731L201.762 45.8509C202.25 46.2697 202.85 46.5 203.506 46.5V43.5ZM203.877 43.7358C203.886 43.7464 203.908 43.7766 203.926 43.8253C203.945 43.8746 203.95 43.9178 203.95 43.944H200.95C200.95 44.5995 201.18 45.1996 201.599 45.6882L203.877 43.7358ZM203.95 43.944C203.95 43.9771 203.945 44.018 203.932 44.0611C203.918 44.1038 203.902 44.1347 203.89 44.152L201.394 42.488C201.107 42.9185 200.95 43.4145 200.95 43.944H203.95ZM203.843 44.2189L210.131 35.8189L207.729 34.0211L201.441 42.4211L203.843 44.2189ZM208.93 33.42C208.898 33.42 208.89 33.4183 208.9 33.4196C208.909 33.4207 208.953 33.4266 209.02 33.449L208.072 36.295C208.383 36.3988 208.691 36.42 208.93 36.42V33.42ZM208.712 33.3812C207.184 33.2114 205.594 32.7271 203.937 31.8984L202.595 34.5816C204.522 35.5449 206.452 36.1486 208.38 36.3628L208.712 33.3812ZM203.937 31.8984C202.358 31.1089 201.035 29.9989 199.957 28.5518L197.551 30.3442C198.905 32.1611 200.59 33.5791 202.595 34.5816L203.937 31.8984ZM199.965 28.563C198.961 27.1895 198.43 25.5101 198.43 23.448H195.43C195.43 26.0579 196.115 28.3785 197.543 30.333L199.965 28.563ZM198.43 23.448C198.43 21.4799 198.932 19.6868 199.938 18.0373L197.377 16.4747C196.08 18.6012 195.43 20.9361 195.43 23.448H198.43ZM199.935 18.0433C200.956 16.3878 202.462 15.0295 204.52 13.9858L203.164 11.3101C200.678 12.5705 198.728 14.2842 197.381 16.4687L199.935 18.0433ZM204.513 13.9896C206.564 12.9639 209.076 12.42 212.098 12.42V9.42C208.72 9.42 205.728 10.028 203.171 11.3064L204.513 13.9896ZM212.098 12.42C215.21 12.42 217.795 12.9088 219.896 13.8298L221.1 11.0822C218.529 9.95517 215.513 9.42 212.098 9.42V12.42ZM219.918 13.8395C222.062 14.7374 223.6 15.9733 224.626 17.512L227.122 15.8479C225.716 13.7387 223.67 12.1586 221.077 11.0725L219.918 13.8395ZM224.633 17.5223C225.662 19.0391 226.198 20.8345 226.198 22.968H229.198C229.198 20.3015 228.518 17.9049 227.115 15.8377L224.633 17.5223ZM226.198 22.968C226.198 24.5274 225.852 25.9526 225.168 27.2671L227.828 28.6529C228.744 26.8954 229.198 24.9926 229.198 22.968H226.198ZM225.168 27.2671C224.419 28.7034 223.239 30.5198 221.598 32.7295L224.006 34.5185C225.692 32.2482 226.976 30.2886 227.828 28.6529L225.168 27.2671ZM221.591 32.7382L220.151 34.7062L222.572 36.4778L224.012 34.5098L221.591 32.7382ZM220.162 34.692L213.826 43.14L216.226 44.94L222.562 36.492L220.162 34.692ZM213.797 43.1798C213.638 43.4075 213.478 43.5 213.154 43.5V46.5C214.429 46.5 215.518 45.9525 216.255 44.9002L213.797 43.1798ZM213.154 43.5H203.506V46.5H213.154V43.5ZM212.242 28.02C213.495 28.02 214.667 27.656 215.559 26.7647L213.437 24.6433C213.241 24.84 212.908 25.02 212.242 25.02V28.02ZM215.559 26.7647C216.459 25.8644 216.814 24.6695 216.814 23.4H213.814C213.814 24.1145 213.625 24.4556 213.437 24.6433L215.559 26.7647ZM216.814 23.4C216.814 22.1061 216.428 20.9009 215.48 20.0055L213.42 22.1865C213.624 22.3791 213.814 22.7099 213.814 23.4H216.814ZM215.511 20.0353C214.629 19.1536 213.48 18.78 212.242 18.78V21.78C212.86 21.78 213.183 21.9504 213.389 22.1567L215.511 20.0353ZM212.242 18.78C211.001 18.78 209.858 19.154 208.956 20.0055L211.016 22.1865C211.266 21.95 211.627 21.78 212.242 21.78V18.78ZM208.925 20.0353C208.025 20.9356 207.67 22.1305 207.67 23.4H210.67C210.67 22.6855 210.859 22.3444 211.047 22.1567L208.925 20.0353ZM207.67 23.4C207.67 24.6695 208.025 25.8644 208.925 26.7647L211.047 24.6433C210.859 24.4556 210.67 24.1145 210.67 23.4H207.67ZM208.925 26.7647C209.817 27.656 210.988 28.02 212.242 28.02V25.02C211.575 25.02 211.243 24.84 211.047 24.6433L208.925 26.7647Z" fill="#C90709"/>
<defs>
<filter id="filter0_d" x="0.728027" y="6" width="232.97" height="48.48" filterUnits="userSpaceOnUse" color-interpolation-filters="sRGB">
<feFlood flood-opacity="0" result="BackgroundImageFix"/>
<feColorMatrix in="SourceAlpha" type="matrix" values="0 0 0 0 0 0 0 0 0 0 0 0 0 0 0 0 0 0 127 0"/>
<feOffset dy="3"/>
<feGaussianBlur stdDeviation="1.5"/>
<feColorMatrix type="matrix" values="0 0 0 0 0.772549 0 0 0 0 0 0 0 0 0 0 0 0 0 1 0"/>
<feBlend mode="normal" in2="BackgroundImageFix" result="effect1_dropShadow"/>
<feBlend mode="normal" in="SourceGraphic" in2="effect1_dropShadow" result="shape"/>
</filter>
</defs>
</svg>
